<svg width="573" height="422" viewBox="0 0 573 422" fill="none" xmlns="http://www.w3.org/2000/svg">
<path d="M520.988 317.641H7.12226C5.23396 317.639 3.4236 316.863 2.08836 315.484C0.753133 314.105 0.00208453 312.235 0 310.284L0 7.35699C0.00208453 5.40646 0.753133 3.53643 2.08836 2.15719C3.4236 0.777953 5.23396 0.00215323 7.12226 0H520.988C522.876 0.00234856 524.686 0.778211 526.021 2.15741C527.357 3.5366 528.108 5.40652 528.11 7.35699V310.284C528.108 312.235 527.357 314.105 526.021 315.484C524.686 316.863 522.876 317.639 520.988 317.641Z" fill="#090814"/>
<path d="M516.116 12.2744H13.2608V305.364H516.116V12.2744Z" fill="white"/>
<path d="M470.366 231.66L474.709 259.476C474.709 259.476 474.709 284.6 473.406 285.049C472.103 285.498 466.457 285.049 466.457 285.049V256.784L468.195 232.109L470.366 231.66Z" fill="#33A0DF"/>
<path d="M288.552 62.1055C287.915 62.1063 287.303 62.3682 286.852 62.8339C286.402 63.2996 286.148 63.931 286.147 64.5896V106.184C286.148 106.842 286.402 107.474 286.852 107.94C287.303 108.405 287.915 108.667 288.552 108.668H450.881C451.519 108.667 452.13 108.405 452.581 107.94C453.032 107.474 453.286 106.842 453.286 106.184V64.5896C453.286 63.931 453.032 63.2996 452.581 62.8339C452.13 62.3682 451.519 62.1063 450.881 62.1055H288.552Z" fill="white"/>
<path d="M288.552 62.1055C287.915 62.1063 287.303 62.3682 286.852 62.8339C286.402 63.2996 286.148 63.931 286.147 64.5896V106.184C286.148 106.842 286.402 107.474 286.852 107.94C287.303 108.405 287.915 108.667 288.552 108.668H450.881C451.519 108.667 452.13 108.405 452.581 107.94C453.032 107.474 453.286 106.842 453.286 106.184V64.5896C453.286 63.931 453.032 63.2996 452.581 62.8339C452.13 62.3682 451.519 62.1063 450.881 62.1055H288.552Z" fill="#E6E6E6"/>
<path d="M288.853 105.873H450.58V64.9023H288.853V105.873Z" fill="white"/>
<path d="M307.241 76.6924C306.683 76.6924 306.147 76.9214 305.753 77.329C305.358 77.7366 305.136 78.2894 305.136 78.8659C305.136 79.4424 305.358 79.9952 305.753 80.4028C306.147 80.8104 306.683 81.0394 307.241 81.0394H432.187C432.745 81.0394 433.28 80.8104 433.675 80.4028C434.069 79.9952 434.291 79.4424 434.291 78.8659C434.291 78.2894 434.069 77.7366 433.675 77.329C433.28 76.9214 432.745 76.6924 432.187 76.6924H307.241Z" fill="#E6E6E6"/>
<path d="M307.241 89.7334C306.683 89.7334 306.147 89.9624 305.753 90.37C305.358 90.7776 305.136 91.3305 305.136 91.9069C305.136 92.4834 305.358 93.0362 305.753 93.4438C306.147 93.8514 306.683 94.0804 307.241 94.0804H432.187C432.463 94.0811 432.737 94.0255 432.992 93.9168C433.248 93.8082 433.48 93.6486 433.676 93.4472C433.872 93.2458 434.027 93.0066 434.134 92.7431C434.24 92.4797 434.295 92.1972 434.295 91.9117C434.296 91.6263 434.242 91.3435 434.137 91.0796C434.032 90.8156 433.877 90.5757 433.682 90.3734C433.487 90.1711 433.256 90.0105 433.001 89.9007C432.746 89.7909 432.472 89.734 432.196 89.7334H307.241Z" fill="#E6E6E6"/>
<path d="M147.743 177.49C147.105 177.491 146.494 177.753 146.043 178.219C145.592 178.684 145.339 179.316 145.338 179.974V221.569C145.339 222.227 145.592 222.859 146.043 223.324C146.494 223.79 147.105 224.052 147.743 224.053H310.072C310.71 224.052 311.321 223.79 311.772 223.324C312.223 222.859 312.476 222.227 312.477 221.569V179.974C312.476 179.316 312.223 178.684 311.772 178.219C311.321 177.753 310.71 177.491 310.072 177.49H147.743Z" fill="white"/>
<path d="M147.743 177.49C147.105 177.491 146.494 177.753 146.043 178.219C145.592 178.684 145.339 179.316 145.338 179.974V221.569C145.339 222.227 145.592 222.859 146.043 223.324C146.494 223.79 147.105 224.052 147.743 224.053H310.072C310.71 224.052 311.321 223.79 311.772 223.324C312.223 222.859 312.476 222.227 312.477 221.569V179.974C312.476 179.316 312.223 178.684 311.772 178.219C311.321 177.753 310.71 177.491 310.072 177.49H147.743Z" fill="#E6E6E6"/>
<path d="M148.044 221.258H309.771V180.287H148.044V221.258Z" fill="white"/>
<path d="M166.431 192.077C165.873 192.077 165.338 192.306 164.943 192.714C164.548 193.121 164.327 193.674 164.327 194.251C164.327 194.827 164.548 195.38 164.943 195.788C165.338 196.195 165.873 196.424 166.431 196.424H291.377C291.653 196.424 291.927 196.368 292.182 196.259C292.437 196.15 292.669 195.989 292.865 195.788C293.06 195.586 293.215 195.346 293.321 195.082C293.427 194.819 293.481 194.536 293.481 194.251C293.481 193.965 293.427 193.683 293.321 193.419C293.215 193.155 293.06 192.916 292.865 192.714C292.669 192.512 292.437 192.352 292.182 192.243C291.927 192.133 291.653 192.077 291.377 192.077H166.431Z" fill="#E6E6E6"/>
<path d="M166.431 205.118C165.873 205.118 165.338 205.347 164.943 205.755C164.548 206.162 164.327 206.715 164.327 207.292C164.327 207.868 164.548 208.421 164.943 208.829C165.338 209.236 165.873 209.465 166.431 209.465H291.377C291.653 209.466 291.927 209.41 292.182 209.302C292.438 209.193 292.67 209.033 292.866 208.832C293.062 208.631 293.217 208.391 293.324 208.128C293.43 207.864 293.485 207.582 293.486 207.296C293.486 207.011 293.433 206.728 293.327 206.464C293.222 206.2 293.068 205.96 292.873 205.758C292.678 205.556 292.446 205.395 292.191 205.285C291.936 205.176 291.663 205.119 291.386 205.118H166.431Z" fill="#E6E6E6"/>
<path d="M325.11 230.716C324.503 230.514 323.844 230.568 323.276 230.868C322.708 231.167 322.278 231.687 322.081 232.313L309.664 271.879C309.468 272.506 309.52 273.187 309.81 273.774C310.1 274.361 310.603 274.805 311.209 275.009L465.627 326.716C466.234 326.918 466.894 326.863 467.462 326.564C468.03 326.264 468.459 325.744 468.657 325.118L481.075 285.55C481.271 284.923 481.218 284.241 480.928 283.655C480.638 283.068 480.135 282.624 479.529 282.421L325.11 230.716Z" fill="white"/>
<path d="M325.11 230.716C324.503 230.514 323.844 230.568 323.276 230.868C322.708 231.167 322.278 231.687 322.081 232.313L309.664 271.879C309.468 272.506 309.52 273.187 309.81 273.774C310.1 274.361 310.603 274.805 311.209 275.009L465.627 326.716C466.234 326.918 466.894 326.863 467.462 326.564C468.03 326.264 468.459 325.744 468.657 325.118L481.075 285.55C481.271 284.923 481.218 284.241 480.928 283.655C480.638 283.068 480.135 282.624 479.529 282.421L325.11 230.716Z" fill="#F2F2F2"/>
<path d="M312.33 272.443L466.176 323.958L478.408 284.984L324.561 233.467L312.33 272.443Z" fill="white"/>
<path d="M338.531 250.542C338 250.364 337.422 250.411 336.925 250.673C336.428 250.935 336.052 251.39 335.88 251.939C335.708 252.487 335.754 253.084 336.007 253.597C336.261 254.111 336.702 254.499 337.233 254.677L456.09 294.476C456.621 294.654 457.198 294.607 457.695 294.345C458.192 294.084 458.569 293.628 458.741 293.08C458.913 292.532 458.868 291.935 458.614 291.422C458.361 290.908 457.92 290.52 457.389 290.342L338.531 250.542Z" fill="#33A0DF"/>
<path d="M334.639 262.948C334.108 262.77 333.531 262.817 333.034 263.079C332.537 263.341 332.161 263.797 331.989 264.345C331.817 264.894 331.862 265.49 332.116 266.004C332.37 266.517 332.81 266.905 333.341 267.083L452.198 306.883C452.461 306.971 452.738 307.006 453.014 306.984C453.289 306.962 453.558 306.884 453.804 306.755C454.051 306.625 454.27 306.447 454.45 306.231C454.629 306.014 454.766 305.763 454.852 305.491C454.938 305.22 454.971 304.934 454.95 304.649C454.928 304.364 454.853 304.087 454.728 303.832C454.603 303.578 454.431 303.351 454.221 303.166C454.011 302.98 453.768 302.839 453.505 302.75H453.496L334.639 262.948Z" fill="#33A0DF"/>
<path d="M100.949 12.3896H12.8872V305.25H100.949V12.3896Z" fill="#F2F2F2"/>
<path d="M55.1533 177.32C66.5719 177.32 75.8285 167.758 75.8285 155.963C75.8285 144.168 66.5719 134.606 55.1533 134.606C43.7347 134.606 34.4781 144.168 34.4781 155.963C34.4781 167.758 43.7347 177.32 55.1533 177.32Z" fill="#33A0DF"/>
<path d="M55.8443 144.029C55.8443 143.62 55.5237 143.289 55.1283 143.289C54.7329 143.289 54.4124 143.62 54.4124 144.029V167.694C54.4124 168.102 54.7329 168.434 55.1283 168.434C55.5237 168.434 55.8443 168.102 55.8443 167.694V144.029Z" fill="white"/>
<path d="M66.5837 155.121H43.6733C43.2779 155.121 42.9574 155.452 42.9574 155.861C42.9574 156.269 43.2779 156.6 43.6733 156.6H66.5837C66.9791 156.6 67.2997 156.269 67.2997 155.861C67.2997 155.452 66.9791 155.121 66.5837 155.121Z" fill="white"/>
<path d="M124.032 198.623C124.171 195.53 123.477 192.458 122.028 189.748C120.579 187.038 118.431 184.795 115.822 183.27C113.214 181.744 110.247 180.996 107.251 181.106C104.256 181.217 101.349 182.184 98.8528 183.898C96.3568 185.613 94.3697 188.008 93.112 190.818C91.8543 193.629 91.3753 196.745 91.7282 199.819C92.0811 202.894 93.252 205.807 95.111 208.236C96.97 210.665 99.4443 212.514 102.259 213.578L104.426 235.107L121.008 222.136C118.966 219.072 117.33 215.739 116.146 212.226C118.447 210.809 120.371 208.824 121.748 206.451C123.124 204.077 123.909 201.387 124.032 198.623Z" fill="#ED9DA0"/>
<path d="M59.5733 254.293L54.8044 237.953C54.8044 237.953 45.8629 273.701 54.4951 273.701C63.1273 273.701 78.1078 262.685 78.1078 262.685L66.6412 248.271L59.5733 254.293Z" fill="#ED9DA0"/>
<path d="M155.348 262.085L155.293 286.817L151.794 305.359L130.625 305.306L139.297 263.475L155.348 262.085Z" fill="#ED9DA0"/>
<path d="M102.609 217.184L94.8653 222.036C94.8653 222.036 78.8696 223.61 77.3461 229.38C75.8225 235.149 71.7617 235.148 72.0144 238.559L64.144 248.785C64.144 248.785 74.9347 260.719 74.9347 264.39C74.9347 268.061 81.9167 262.36 81.9167 262.36V305.485H137.689L139.168 269.371C139.168 269.371 153.129 259.143 156.94 266.487L152.878 248.915C152.878 248.915 153.132 236.064 145.007 229.77L125.711 220.328C125.711 220.328 124.115 217.496 118.022 216.971L113.778 227.671L104.384 233.965L102.609 217.184Z" fill="#33A0DF"/>
<path d="M111.952 189.421C117.838 192.268 124.065 199.278 122.579 205.813C124.18 203.003 123.009 200.554 124.611 197.744C125.124 196.926 125.532 196.042 125.825 195.116L126.872 195.653C127.033 194.935 127.029 194.187 126.858 193.471C126.688 192.754 126.357 192.089 125.892 191.53L127.53 192.104C127.118 188.005 125.373 184.171 122.579 181.228L125.044 181.733C124.118 180.5 122.87 179.564 121.448 179.036C120.026 178.508 118.487 178.409 117.013 178.75L117.906 179.354C117.239 177.447 116.01 175.804 114.392 174.656C112.774 173.508 110.847 172.914 108.885 172.957L110.8 174.436C108.286 172.009 104.272 172.395 101.033 173.596C97.7945 174.797 94.678 176.673 91.2378 176.767C91.3494 177.233 91.5907 177.656 91.9318 177.983C92.273 178.309 92.6992 178.526 93.158 178.605L92.4571 178.282C91.4693 179.54 90.2388 180.572 88.8441 181.312C87.4493 182.052 85.9207 182.485 84.3554 182.582C85.2064 184.018 86.4559 185.156 87.9416 185.848L83.8492 185.744L86.7367 188.431L86.5656 188.821C87.236 193.076 88.9561 197.08 91.56 200.449C91.8233 198.079 92.6473 195.812 93.9592 193.849C95.271 191.886 97.0305 190.287 99.0823 189.192C101.134 188.098 103.415 187.541 105.724 187.573C108.033 187.604 110.299 188.222 112.323 189.372L111.952 189.421Z" fill="#090814"/>
<path d="M68.1847 216.421L66.2245 256.895L52.6429 257.863L57.4033 215.887C56.403 214.728 55.6363 213.374 55.1479 211.905C54.6594 210.436 54.4589 208.881 54.5581 207.331C54.8337 201.385 58.9189 196.755 63.6829 196.992C68.4468 197.229 72.0845 202.239 71.8089 208.184C71.7642 209.737 71.4208 211.265 70.7986 212.679C70.1764 214.093 69.2878 215.366 68.1847 216.421Z" fill="#ED9DA0"/>
<path d="M567.46 37.8738C570.408 37.8738 572.798 35.4051 572.798 32.3598C572.798 29.3144 570.408 26.8457 567.46 26.8457C564.512 26.8457 562.122 29.3144 562.122 32.3598C562.122 35.4051 564.512 37.8738 567.46 37.8738Z" fill="white"/>
<path d="M445.176 212.816C445.176 212.816 450.605 224.705 449.736 228.294C449.227 230.476 449.457 232.773 450.388 234.802L460.377 234.353L469.716 225.156C469.716 225.156 455.601 215.061 456.471 210.126C457.34 205.191 445.176 212.816 445.176 212.816Z" fill="#ED9DA0"/>
<path d="M496.426 394.965L499.9 408.873L505.113 404.835L509.89 393.619L503.809 385.992L496.426 394.965Z" fill="#ED9DA0"/>
<path d="M509.89 391.824C509.89 391.824 504.244 396.31 504.244 400.797C504.244 400.797 501.204 405.732 497.729 405.283V414.705C497.729 414.705 486.871 420.537 495.123 421.883C503.375 423.229 509.455 412.461 509.455 412.461C509.455 412.461 517.273 399.45 515.97 397.656C514.667 395.862 509.89 391.824 509.89 391.824Z" fill="#090814"/>
<path d="M470.335 282.926C470.335 282.926 478.621 292.225 474.71 306.582C474.71 306.582 470.367 338.883 484.266 350.996C498.164 363.109 507.285 389.579 507.285 389.579L496.86 399.449C496.86 399.449 485.569 372.979 473.841 362.661C462.114 352.343 460.811 340.678 460.811 340.678V299.855L458.64 282.804L470.335 282.926Z" fill="#090814"/>
<path opacity="0.1" d="M470.335 282.926C470.335 282.926 478.621 292.225 474.71 306.582C474.71 306.582 470.367 338.883 484.266 350.996C498.164 363.109 507.285 389.579 507.285 389.579L496.86 399.449C496.86 399.449 485.569 372.979 473.841 362.661C462.114 352.343 460.811 340.678 460.811 340.678V299.855L458.64 282.804L470.335 282.926Z" fill="#6F6F6F"/>
<path d="M459.509 405.283L455.166 410.218L456.903 414.256L462.115 416.051L471.237 412.462L469.934 407.078L459.509 405.283Z" fill="#ED9DA0"/>
<path d="M471.235 410.217C471.235 410.217 461.185 415.601 458.673 413.358C457.941 412.724 457.341 411.943 456.911 411.063C456.48 410.182 456.227 409.22 456.167 408.235C456.167 408.235 451.135 408.872 447.786 411.114C444.436 413.355 440.312 414.135 437.734 416.049C435.157 417.963 435.222 421.433 443.176 421.881C451.129 422.329 471.231 421.432 471.231 419.189L471.235 410.217Z" fill="#090814"/>
<path d="M443.005 288.637C443.005 288.637 437.359 314.658 447.348 344.27C447.348 344.27 452.126 360.869 454.297 365.804C456.468 370.739 458.64 405.733 457.771 407.079C457.771 407.079 464.72 412.911 470.802 408.874C470.802 408.874 470.367 388.236 471.236 386.442C472.106 384.648 472.974 368.946 467.762 355.934C462.55 342.923 466.893 311.52 466.893 311.52C466.893 311.52 477.318 295.368 469.499 285.945L443.005 288.637Z" fill="#090814"/>
<path d="M449.519 215.959C456.236 215.959 461.681 210.335 461.681 203.397C461.681 196.459 456.236 190.835 449.519 190.835C442.803 190.835 437.358 196.459 437.358 203.397C437.358 210.335 442.803 215.959 449.519 215.959Z" fill="#ED9DA0"/>
<path d="M472.104 285.497C472.104 285.497 468.63 290.881 466.024 288.189C464.187 286.292 452.425 290.415 445.639 293.012C442.798 294.098 440.831 294.918 440.831 294.918C440.831 294.918 440.644 288.7 440.093 280.826C439.459 271.791 438.347 260.563 436.488 254.092C433.014 241.978 441.7 237.043 441.7 237.043C441.7 237.043 449.084 228.071 448.651 226.724C448.219 225.378 468.197 218.648 468.197 218.648C470.368 219.097 472.106 239.286 472.106 239.286C472.106 239.286 468.197 255.437 466.025 265.307C463.854 275.177 472.104 285.497 472.104 285.497Z" fill="#33A0DF"/>
<path d="M434.751 285.945C434.751 285.945 425.196 295.815 420.419 298.507C415.641 301.199 413.035 310.171 416.944 311.967C420.853 313.763 429.54 302.097 429.54 302.097L442.136 291.329L434.751 285.945Z" fill="#ED9DA0"/>
<path d="M436.558 195.891C435.447 195.993 434.812 197.439 435.17 198.53C435.394 199.059 435.73 199.53 436.152 199.908C436.575 200.287 437.074 200.563 437.613 200.716C438.665 201.098 439.79 201.228 440.844 201.604C441.892 202 442.864 202.583 443.716 203.327C446.673 205.988 448.576 209.682 449.061 213.702C449.525 217.696 449.161 221.746 447.996 225.585C447.43 227.627 446.507 229.865 444.576 230.589C446.688 230.051 448.751 229.328 450.744 228.428C452.205 227.718 453.576 226.818 455.052 226.143C457.238 225.222 459.53 224.6 461.872 224.294C463.518 224.03 465.254 223.828 466.798 224.469C467.745 224.924 468.617 225.531 469.38 226.268L474.348 230.579C474.434 228.706 474.491 226.83 474.519 224.953C474.638 223.322 474.446 221.683 473.955 220.129C473.382 218.632 472.29 217.411 471.56 215.987C469.754 212.465 470.343 208.226 470.376 204.242C470.516 200.099 469.673 195.985 467.919 192.257C466.071 188.6 462.913 185.539 459.064 184.443C453.874 182.964 448.403 185.163 443.633 187.738C442.51 188.289 441.464 188.993 440.521 189.83C439.519 190.888 438.667 192.088 437.992 193.393L435.629 197.481" fill="#090814"/>
<path opacity="0.1" d="M467.326 243.773C467.326 243.773 459.074 276.075 458.208 278.319C457.582 279.929 450.225 288.498 445.643 293.013C442.802 294.097 440.834 294.918 440.834 294.918C440.834 294.918 440.648 288.699 440.096 280.826C443.63 276.773 447.347 272.937 447.347 272.937C447.347 272.937 451.257 248.262 450.822 238.844C450.387 229.426 459.509 227.18 459.509 227.18C469.932 228.519 467.326 243.773 467.326 243.773Z" fill="black"/>
<path d="M458.206 225.379C458.206 225.379 449.085 227.622 449.519 237.043C449.954 246.464 446.045 271.136 446.045 271.136C446.045 271.136 431.277 286.39 432.58 288.184C433.883 289.978 439.466 293.509 440.801 293.986C442.136 294.463 456.034 278.761 456.903 276.519C457.771 274.277 466.024 241.974 466.024 241.974C466.024 241.974 468.63 226.725 458.206 225.379Z" fill="#33A0DF"/>
</svg>
