<svg width="49" height="48" viewBox="0 0 49 48" fill="none" xmlns="http://www.w3.org/2000/svg">
<circle cx="24.3809" cy="24" r="24" fill="black"/>
<path d="M37.213 12.229C34.8659 11.1349 32.3248 10.3407 29.6777 9.88192C29.6545 9.88117 29.6314 9.88553 29.6101 9.89468C29.5887 9.90382 29.5697 9.91754 29.5542 9.93486C29.2365 10.5172 28.8659 11.276 28.6189 11.8584C25.8112 11.4349 22.9559 11.4349 20.1483 11.8584C19.9012 11.2584 19.5307 10.5172 19.1954 9.93486C19.1777 9.89956 19.1248 9.88192 19.0718 9.88192C16.4248 10.3407 13.9012 11.1349 11.5365 12.229C11.5189 12.229 11.5012 12.2466 11.4836 12.2643C6.68359 19.4466 5.36006 26.4349 6.01301 33.3525C6.01301 33.3878 6.03065 33.4231 6.06595 33.4407C9.24242 35.7702 12.2954 37.1819 15.313 38.1172C15.3659 38.1349 15.4189 38.1172 15.4365 38.0819C16.1424 37.1113 16.7777 36.0878 17.3248 35.0113C17.3601 34.9407 17.3248 34.8701 17.2542 34.8525C16.2483 34.4643 15.2954 34.0054 14.3601 33.476C14.2895 33.4407 14.2895 33.3349 14.3424 33.2819C14.5365 33.1407 14.7307 32.9819 14.9248 32.8407C14.9601 32.8054 15.013 32.8054 15.0483 32.8231C21.1189 35.5937 27.6659 35.5937 33.6659 32.8231C33.7012 32.8054 33.7542 32.8054 33.7895 32.8407C33.9836 32.9996 34.1777 33.1407 34.3718 33.2996C34.4424 33.3525 34.4424 33.4584 34.3542 33.4937C33.4365 34.0407 32.4659 34.4819 31.4601 34.8701C31.3895 34.8878 31.3718 34.976 31.3895 35.029C31.9542 36.1054 32.5895 37.129 33.2777 38.0996C33.3307 38.1172 33.3836 38.1349 33.4365 38.1172C36.4718 37.1819 39.5248 35.7702 42.7012 33.4407C42.7365 33.4231 42.7542 33.3878 42.7542 33.3525C43.5306 25.3584 41.4659 18.4231 37.2836 12.2643C37.2659 12.2466 37.2483 12.229 37.213 12.229ZM18.2424 29.1349C16.4248 29.1349 14.9071 27.4584 14.9071 25.3937C14.9071 23.329 16.3895 21.6525 18.2424 21.6525C20.113 21.6525 21.5954 23.3466 21.5777 25.3937C21.5777 27.4584 20.0954 29.1349 18.2424 29.1349ZM30.5424 29.1349C28.7248 29.1349 27.2071 27.4584 27.2071 25.3937C27.2071 23.329 28.6895 21.6525 30.5424 21.6525C32.413 21.6525 33.8954 23.3466 33.8777 25.3937C33.8777 27.4584 32.413 29.1349 30.5424 29.1349Z" fill="white"/>
</svg>
