<svg width="49" height="48" viewBox="0 0 49 48" fill="none" xmlns="http://www.w3.org/2000/svg">
<path d="M16.4357 38.6495C16.4357 38.848 16.2131 39.0068 15.9325 39.0068C15.6131 39.0366 15.3905 38.8778 15.3905 38.6495C15.3905 38.451 15.6131 38.2922 15.8938 38.2922C16.1841 38.2624 16.4357 38.4212 16.4357 38.6495ZM13.426 38.2029C13.3583 38.4014 13.5518 38.6297 13.8421 38.6892C14.0938 38.7885 14.3841 38.6892 14.4421 38.4907C14.5002 38.2922 14.3163 38.0639 14.026 37.9746C13.7744 37.9051 13.4938 38.0044 13.426 38.2029ZM17.7034 38.0342C17.4228 38.1036 17.2292 38.2922 17.2583 38.5205C17.2873 38.719 17.5389 38.848 17.8292 38.7786C18.1099 38.7091 18.3034 38.5205 18.2744 38.322C18.2454 38.1334 17.9841 38.0044 17.7034 38.0342ZM24.0712 0C10.6486 0 0.380859 10.4515 0.380859 24.218C0.380859 35.2253 7.1357 44.6445 16.7841 47.9596C18.0228 48.1878 18.4583 47.4037 18.4583 46.7586C18.4583 46.1432 18.4292 42.7487 18.4292 40.6644C18.4292 40.6644 11.6551 42.1532 10.2325 37.7066C10.2325 37.7066 9.12925 34.8183 7.54215 34.0739C7.54215 34.0739 5.32602 32.5156 7.69699 32.5454C7.69699 32.5454 10.1067 32.7439 11.4325 35.1062C13.5518 38.9374 17.1034 37.8356 18.4873 37.1806C18.7099 35.5925 19.3389 34.4908 20.0357 33.8357C14.626 33.2203 9.16796 32.4164 9.16796 22.8681C9.16796 20.1386 9.90344 18.7689 11.4518 17.0221C11.2002 16.3769 10.3776 13.7169 11.7034 10.2827C13.726 9.63757 18.3809 12.9626 18.3809 12.9626C20.3163 12.4068 22.397 12.1189 24.4583 12.1189C26.5196 12.1189 28.6002 12.4068 30.5357 12.9626C30.5357 12.9626 35.1905 9.62764 37.2131 10.2827C38.5389 13.7268 37.7163 16.3769 37.4647 17.0221C39.0131 18.7789 39.9615 20.1486 39.9615 22.8681C39.9615 32.4462 34.2615 33.2104 28.8518 33.8357C29.7421 34.6198 30.497 36.1086 30.497 38.4411C30.497 41.786 30.468 45.9249 30.468 46.7387C30.468 47.3839 30.9131 48.168 32.1422 47.9397C41.8196 44.6445 48.3809 35.2253 48.3809 24.218C48.3809 10.4515 37.4938 0 24.0712 0ZM9.78731 34.2327C9.6615 34.332 9.69054 34.5603 9.85505 34.7488C10.0099 34.9076 10.2325 34.9771 10.3583 34.8481C10.4841 34.7488 10.4551 34.5206 10.2905 34.332C10.1357 34.1732 9.91312 34.1037 9.78731 34.2327ZM8.74215 33.4288C8.67441 33.5578 8.77118 33.7166 8.96473 33.8159C9.11957 33.9151 9.31312 33.8853 9.38086 33.7464C9.4486 33.6173 9.35183 33.4585 9.15828 33.3593C8.96473 33.2997 8.80989 33.3295 8.74215 33.4288ZM11.8776 36.9622C11.7228 37.0912 11.7809 37.389 12.0034 37.5776C12.226 37.8059 12.5067 37.8356 12.6325 37.6768C12.7583 37.5478 12.7002 37.25 12.5067 37.0615C12.2938 36.8332 12.0034 36.8034 11.8776 36.9622ZM10.7744 35.5032C10.6196 35.6024 10.6196 35.8605 10.7744 36.0888C10.9292 36.3171 11.1905 36.4163 11.3163 36.3171C11.4712 36.188 11.4712 35.93 11.3163 35.7017C11.1809 35.4734 10.9292 35.3741 10.7744 35.5032Z" fill="black"/>
</svg>
