<svg width="49" height="48" viewBox="0 0 49 48" fill="none" xmlns="http://www.w3.org/2000/svg">
<circle cx="24.3809" cy="24" r="24" fill="black"/>
<path d="M40.6171 13.6922C39.4219 14.2354 38.1336 14.5924 36.7988 14.7631C38.1647 13.9405 39.2201 12.6367 39.7168 11.0691C38.4286 11.8451 37.0006 12.3884 35.495 12.6988C34.2688 11.364 32.546 10.5879 30.5903 10.5879C26.9428 10.5879 23.9627 13.568 23.9627 17.2465C23.9627 17.7743 24.0248 18.2865 24.1334 18.7676C18.6078 18.4882 13.6876 15.8341 10.4126 11.8141C9.83831 12.7919 9.51236 13.9405 9.51236 15.1512C9.51236 17.4638 10.6765 19.5126 12.4769 20.6767C11.3749 20.6767 10.3505 20.3663 9.45027 19.9007V19.9472C9.45027 23.1757 11.7474 25.8764 14.7896 26.4817C13.8129 26.749 12.7875 26.7862 11.794 26.5904C12.2156 27.9135 13.0412 29.0713 14.1548 29.901C15.2684 30.7306 16.6141 31.1904 18.0025 31.2157C15.6489 33.079 12.7315 34.0861 9.72966 34.0716C9.20193 34.0716 8.67421 34.0406 8.14648 33.9785C11.0955 35.8721 14.6033 36.9741 18.3595 36.9741C30.5903 36.9741 37.311 26.8232 37.311 18.0226C37.311 17.7277 37.311 17.4483 37.2955 17.1534C38.5993 16.2221 39.7168 15.0425 40.6171 13.6922Z" fill="white"/>
</svg>
