<svg width="49" height="48" viewBox="0 0 49 48" fill="none" xmlns="http://www.w3.org/2000/svg">
<circle cx="24.3809" cy="24" r="24" fill="black"/>
<rect width="32.4706" height="32.4706" transform="translate(8.14258 7.76465)" fill="black"/>
<path d="M17.5329 14.5295C17.5325 15.2471 17.2471 15.9353 16.7394 16.4425C16.2317 16.9496 15.5433 17.2344 14.8256 17.234C14.108 17.2337 13.4199 16.9482 12.9127 16.4405C12.4055 15.9328 12.1207 15.2444 12.1211 14.5268C12.1215 13.8092 12.4069 13.121 12.9146 12.6138C13.4223 12.1066 14.1107 11.8219 14.8283 11.8223C15.546 11.8226 16.2341 12.1081 16.7413 12.6158C17.2485 13.1235 17.5332 13.8119 17.5329 14.5295ZM17.614 19.2377H12.2023V36.1766H17.614V19.2377ZM26.1646 19.2377H20.7799V36.1766H26.1105V27.2877C26.1105 22.336 32.564 21.876 32.564 27.2877V36.1766H37.9081V25.4477C37.9081 17.1001 28.3564 17.4113 26.1105 21.5107L26.1646 19.2377Z" fill="white"/>
</svg>
