<svg width="49" height="48" viewBox="0 0 49 48" fill="none" xmlns="http://www.w3.org/2000/svg">
<circle cx="24.3809" cy="24" r="24" fill="black"/>
<g clip-path="url(#clip0_259_4082)">
<rect width="32.4706" height="32.4706" transform="translate(8.14648 7.76465)" fill="black"/>
<path d="M24.3818 7.76465C19.9759 7.76465 19.4219 7.78494 17.6908 7.86206C15.9597 7.94324 14.7806 8.21518 13.7477 8.617C12.6641 9.02455 11.6827 9.66383 10.872 10.4901C10.0462 11.3013 9.40697 12.2826 8.99884 13.3658C8.59701 14.3968 8.32304 15.5779 8.2439 17.3029C8.16678 19.038 8.14648 19.59 8.14648 24.002C8.14648 28.4099 8.16678 28.9619 8.2439 30.6929C8.32507 32.422 8.59701 33.6011 8.99884 34.6341C9.41487 35.7015 9.9689 36.6066 10.872 37.5097C11.773 38.4128 12.6782 38.9689 13.7456 39.3829C14.7806 39.7847 15.9577 40.0587 17.6867 40.1378C19.4199 40.2149 19.9719 40.2352 24.3818 40.2352C28.7917 40.2352 29.3417 40.2149 31.0748 40.1378C32.8018 40.0566 33.985 39.7847 35.0179 39.3829C36.1007 38.9751 37.0815 38.3359 37.8916 37.5097C38.7947 36.6066 39.3487 35.7015 39.7647 34.6341C40.1645 33.6011 40.4385 32.422 40.5197 30.6929C40.5968 28.9619 40.6171 28.4099 40.6171 23.9999C40.6171 19.59 40.5968 19.038 40.5197 17.3049C40.4385 15.5779 40.1645 14.3968 39.7647 13.3658C39.3566 12.2826 38.7174 11.3013 37.8916 10.4901C37.0811 9.66352 36.0996 9.02419 35.0159 8.617C33.9809 8.21518 32.7998 7.94121 31.0728 7.86206C29.3396 7.78494 28.7897 7.76465 24.3777 7.76465H24.3838H24.3818ZM22.9267 10.6911H24.3838C28.7186 10.6911 29.2321 10.7053 30.9429 10.7844C32.5258 10.8554 33.3863 11.1213 33.9586 11.3425C34.7155 11.6368 35.2574 11.9899 35.8256 12.5581C36.3939 13.1264 36.745 13.6662 37.0392 14.4252C37.2625 14.9954 37.5263 15.8559 37.5973 17.4389C37.6765 19.1496 37.6927 19.6631 37.6927 23.9959C37.6927 28.3287 37.6765 28.8441 37.5973 30.5549C37.5263 32.1379 37.2604 32.9963 37.0392 33.5686C36.7789 34.2736 36.3635 34.9109 35.8236 35.4336C35.2554 36.0019 34.7155 36.353 33.9565 36.6472C33.3883 36.8705 32.5278 37.1343 30.9429 37.2074C29.2321 37.2845 28.7186 37.3027 24.3838 37.3027C20.049 37.3027 19.5335 37.2845 17.8227 37.2074C16.2398 37.1343 15.3813 36.8705 14.809 36.6472C14.1038 36.3873 13.4658 35.9726 12.942 35.4336C12.4017 34.9101 11.9856 34.2721 11.7243 33.5666C11.5031 32.9963 11.2373 32.1359 11.1662 30.5529C11.0891 28.8421 11.0729 28.3287 11.0729 23.9918C11.0729 19.657 11.0891 19.1456 11.1662 17.4348C11.2393 15.8519 11.5031 14.9914 11.7264 14.4191C12.0206 13.6621 12.3737 13.1203 12.942 12.552C13.5102 11.9838 14.05 11.6327 14.809 11.3384C15.3813 11.1152 16.2398 10.8514 17.8227 10.7783C19.3204 10.7093 19.9008 10.689 22.9267 10.687V10.6911ZM33.0494 13.3861C32.7936 13.3861 32.5402 13.4365 32.3038 13.5344C32.0675 13.6323 31.8527 13.7758 31.6718 13.9567C31.4909 14.1377 31.3474 14.3524 31.2495 14.5888C31.1516 14.8252 31.1012 15.0785 31.1012 15.3344C31.1012 15.5902 31.1516 15.8435 31.2495 16.0799C31.3474 16.3163 31.4909 16.5311 31.6718 16.712C31.8527 16.8929 32.0675 17.0364 32.3038 17.1343C32.5402 17.2322 32.7936 17.2826 33.0494 17.2826C33.5661 17.2826 34.0616 17.0773 34.427 16.712C34.7924 16.3466 34.9976 15.8511 34.9976 15.3344C34.9976 14.8177 34.7924 14.3221 34.427 13.9567C34.0616 13.5914 33.5661 13.3861 33.0494 13.3861ZM24.3838 15.6631C23.2779 15.6459 22.1797 15.8488 21.1529 16.2601C20.1262 16.6713 19.1916 17.2827 18.4034 18.0587C17.6153 18.8346 16.9894 19.7596 16.5621 20.7798C16.1349 21.8 15.9149 22.8949 15.9149 24.001C15.9149 25.107 16.1349 26.202 16.5621 27.2221C16.9894 28.2423 17.6153 29.1673 18.4034 29.9432C19.1916 30.7192 20.1262 31.3306 21.1529 31.7419C22.1797 32.1531 23.2779 32.3561 24.3838 32.3388C26.5726 32.3046 28.6602 31.4112 30.196 29.8512C31.7318 28.2913 32.5926 26.19 32.5926 24.001C32.5926 21.8119 31.7318 19.7106 30.196 18.1507C28.6602 16.5907 26.5726 15.6973 24.3838 15.6631ZM24.3838 18.5875C25.8193 18.5875 27.196 19.1577 28.211 20.1728C29.226 21.1878 29.7962 22.5645 29.7962 23.9999C29.7962 25.4354 29.226 26.8121 28.211 27.8271C27.196 28.8421 25.8193 29.4124 24.3838 29.4124C22.9483 29.4124 21.5717 28.8421 20.5566 27.8271C19.5416 26.8121 18.9714 25.4354 18.9714 23.9999C18.9714 22.5645 19.5416 21.1878 20.5566 20.1728C21.5717 19.1577 22.9483 18.5875 24.3838 18.5875Z" fill="white"/>
</g>
<defs>
<clipPath id="clip0_259_4082">
<rect width="32.4706" height="32.4706" fill="white" transform="translate(8.14648 7.76465)"/>
</clipPath>
</defs>
</svg>
