<svg width="35" height="35" viewBox="0 0 35 35" fill="none" xmlns="http://www.w3.org/2000/svg">
<circle cx="17.5" cy="17.5" r="16" stroke="white" stroke-width="3"/>
<path d="M24.0797 10.9229H10.179C9.22332 10.9229 8.45009 11.7048 8.45009 12.6604L8.44141 23.086C8.44141 24.0416 9.22332 24.8236 10.179 24.8236H24.0797C25.0354 24.8236 25.8173 24.0416 25.8173 23.086V12.6604C25.8173 11.7048 25.0354 10.9229 24.0797 10.9229ZM23.7322 14.6152L17.5898 18.4553C17.3118 18.6291 16.9469 18.6291 16.6689 18.4553L10.5265 14.6152C10.4394 14.5663 10.3631 14.5003 10.3023 14.421C10.2414 14.3418 10.1973 14.251 10.1725 14.1542C10.1478 14.0574 10.1429 13.9566 10.1583 13.8579C10.1736 13.7592 10.2088 13.6646 10.2618 13.5799C10.3147 13.4952 10.3843 13.4221 10.4663 13.365C10.5483 13.308 10.6411 13.2682 10.7389 13.248C10.8368 13.2278 10.9377 13.2277 11.0356 13.2477C11.1335 13.2677 11.2263 13.3073 11.3084 13.3642L17.1293 17.0044L22.9503 13.3642C23.0324 13.3073 23.1252 13.2677 23.2231 13.2477C23.321 13.2277 23.4219 13.2278 23.5198 13.248C23.6176 13.2682 23.7104 13.308 23.7924 13.365C23.8744 13.4221 23.944 13.4952 23.9969 13.5799C24.0499 13.6646 24.0851 13.7592 24.1004 13.8579C24.1158 13.9566 24.1109 14.0574 24.0862 14.1542C24.0614 14.251 24.0173 14.3418 23.9564 14.421C23.8956 14.5003 23.8193 14.5663 23.7322 14.6152Z" fill="white"/>
</svg>
