<svg width="35" height="35" viewBox="0 0 35 35" fill="none" xmlns="http://www.w3.org/2000/svg">
<circle cx="17.5" cy="17.5" r="16" stroke="white" stroke-width="3"/>
<path fill-rule="evenodd" clip-rule="evenodd" d="M22.5803 25.1892C21.1378 25.1456 17.0497 24.6821 12.7684 21.1704C8.488 17.6579 7.92403 14.3048 7.86993 13.1206C7.7898 11.3158 9.4747 9.56287 11.421 8.87828C11.6554 8.79525 11.9121 8.76364 12.1659 8.78655C12.4196 8.80945 12.6618 8.8861 12.8685 9.00895C14.4713 9.96721 15.5772 11.4169 16.5268 12.5568C16.7358 12.8072 16.8251 13.112 16.7778 13.413C16.7305 13.714 16.5499 13.9902 16.2704 14.189L14.316 15.3798C14.2216 15.4357 14.1551 15.5179 14.129 15.611C14.1028 15.7041 14.1187 15.8018 14.1738 15.886C14.6165 16.546 15.4039 17.5289 16.3055 18.2685C17.208 19.0082 18.4622 19.6969 19.3227 20.1012C19.4305 20.1509 19.5575 20.1648 19.6775 20.14C19.7975 20.1153 19.9014 20.0537 19.9678 19.9681L21.24 18.3795C21.4738 18.1246 21.8189 17.9538 22.2028 17.903C22.5867 17.8521 22.9797 17.9251 23.2995 18.1066C24.7089 18.9071 26.3538 19.7988 27.5578 21.0636C27.7197 21.2345 27.8227 21.4379 27.856 21.6525C27.8893 21.8672 27.8517 22.0853 27.7472 22.284C26.9087 23.8891 24.7871 25.2558 22.5803 25.1892Z" fill="white"/>
</svg>
