<svg width="604" height="669" viewBox="0 0 604 669" fill="none" xmlns="http://www.w3.org/2000/svg">
<path d="M653.5 595.291C772.431 464.637 752 537.466 752 389.111C752 240.755 567.042 127.887 409 127.887C250.958 127.887 128 271.014 128 419.369C161.238 547.586 495.458 595.291 653.5 595.291Z" fill="url(#paint0_linear_721_310)"/>
<g filter="url(#filter0_d_721_310)">
<path d="M381 97.1338C459.913 97.1338 545.562 125.316 611.477 172.021C677.395 218.728 723.5 283.9 723.5 357.857C723.5 376.408 723.819 391.502 724.146 403.966C724.472 416.434 724.805 426.259 724.834 434.289C724.891 450.353 723.725 459.123 718.918 467.333C714.085 475.588 705.562 483.308 690.723 497.2C675.933 511.046 654.944 530.957 625.278 563.537C546.286 563.515 423.393 551.59 316.074 523.675C262.364 509.704 212.58 491.734 174.159 469.264C135.75 446.8 108.778 419.887 100.5 388.05C100.537 239.959 223.291 97.1338 381 97.1338Z" stroke="#266299" shape-rendering="crispEdges"/>
</g>
<g clip-path="url(#clip0_721_310)">
<path d="M451.743 345.45L448.432 467.149L447.38 481H402.996L401.397 454.306L388.422 352.576L451.743 345.45Z" fill="#ED9DA0"/>
<path d="M357.098 154.685C358.177 151.612 362.967 150.711 365.836 152.562C368.705 154.413 369.683 158.046 369.127 161.236C368.57 164.425 366.756 167.292 364.977 170.075C351.683 190.861 334.215 249.646 320.918 270.436C324.891 272.821 329.453 274.24 334.179 274.562C338.906 274.883 343.644 274.096 347.953 272.274C350.234 275.91 353.582 278.877 357.61 280.832C361.639 282.787 366.184 283.651 370.722 283.325C375.259 282.998 379.605 281.494 383.256 278.986C386.908 276.478 389.717 273.068 391.36 269.149L384.821 283.067C390.309 281.366 395.295 278.514 399.387 274.734C403.48 270.955 406.568 266.351 408.409 261.284L401.247 281.619C416.245 273.024 427.558 218.096 422.429 201.078C422.336 200.778 422.352 200.459 422.472 200.167C422.592 199.875 422.811 199.627 423.096 199.46L423.116 199.447C423.292 199.345 423.445 199.212 423.566 199.056C431.7 188.523 428.556 173.569 421.691 162.25C414.773 150.845 404.597 141.252 398.51 129.451C390.428 113.786 389.662 94.5371 376.879 81.8169C368.767 73.7455 356.852 69.6484 344.998 68.4326C333.145 67.2169 321.18 68.6116 309.35 70.0041L310.169 68.2476C299.988 61.3914 285.178 63.4573 274.761 70.0035C264.343 76.5497 257.317 86.6628 250.581 96.4951L232.069 123.516C226.026 132.338 202.568 171.156 200.391 181.399C198.214 191.642 200.885 203.453 209.858 209.802L213.267 193.445L212.194 194.301C219.814 219.888 219.772 257.745 194.873 271.005C200.364 272.427 206.155 272.548 211.71 271.357C217.265 270.165 222.405 267.699 226.654 264.187L210.715 280.644C219.387 280.486 227.799 277.885 234.825 273.19L222.627 286.543L255.206 271.105L248.429 286.963L289.166 279.903" fill="#090814"/>
<path d="M257.646 448.802L250.137 480.908H402.716L397.223 463.877L257.646 448.802Z" fill="#090814"/>
<path d="M206.97 424.645L186.024 448.466C186.024 448.466 184.449 480.908 206.97 480.908C229.491 480.908 262.797 420.115 262.797 420.115L239.372 365.417L201.612 356.854L206.97 424.645Z" fill="#ED9DA0"/>
<path d="M388.174 169.788C388.8 157.326 385.673 144.948 379.139 134.028C372.605 123.108 362.921 114.073 351.161 107.927C339.402 101.781 326.027 98.7643 312.522 99.2113C299.017 99.6584 285.911 103.552 274.659 110.46C263.406 117.368 254.447 127.019 248.778 138.343C243.108 149.667 240.949 162.221 242.54 174.609C244.131 186.997 249.41 198.736 257.792 208.522C266.173 218.308 277.328 225.758 290.019 230.045L299.788 316.786L374.555 264.512C374.555 264.512 359.929 245.56 352.631 224.587C363.001 218.877 371.675 210.882 377.878 201.319C384.081 191.755 387.619 180.921 388.174 169.786V169.788Z" fill="#ED9DA0"/>
<path d="M361.925 243.106C361.925 243.106 335.427 334.838 292.368 254.114L235.455 278.485C235.455 278.485 239.43 416.695 251.354 436.265C251.354 436.265 238.769 454.611 254.004 458.281C269.239 461.95 261.29 455.834 269.24 461.95C277.189 468.066 293.088 457.669 293.088 457.669C293.088 457.669 373.506 485.985 397.226 463.877V372.291C397.226 372.291 437.505 338.417 464.002 362.879C464.002 362.879 458.703 285.212 428.892 268.089C399.081 250.965 361.927 243.106 361.927 243.106H361.925Z" fill="#33A0DF"/>
<path d="M247.709 284.905L235.454 278.485C235.454 278.485 188.086 355.846 193.389 366.854C198.691 377.862 260.959 377.25 260.959 377.25L247.709 284.905Z" fill="#33A0DF"/>
<path d="M308.688 70.0043C320.518 68.6118 332.485 67.2176 344.336 68.4328C356.187 69.648 368.105 73.7457 376.216 81.8171C389 94.5362 389.766 113.786 397.847 129.452C403.935 141.252 414.113 150.846 421.028 162.25C427.893 173.57 431.037 188.524 422.903 199.057C422.782 199.213 422.629 199.346 422.453 199.448C422.163 199.617 421.941 199.868 421.821 200.165C421.701 200.461 421.69 200.786 421.79 201.088C427.049 216.591 419.739 235.043 404.759 243.629L411.921 223.292C408.342 233.423 396.919 277.556 385.947 280.863L392.487 266.947C390.844 270.865 388.035 274.275 384.383 276.783C380.732 279.291 376.386 280.795 371.849 281.122C367.311 281.448 362.766 280.584 358.737 278.629C354.708 276.674 351.361 273.707 349.08 270.071C344.771 271.893 340.033 272.68 335.306 272.359C330.58 272.037 326.018 270.618 322.045 268.233C335.339 247.443 351.02 190.863 364.315 170.073C366.094 167.291 367.907 164.424 368.464 161.234C369.021 158.044 368.043 154.411 365.174 152.56C362.305 150.709 357.514 151.61 356.435 154.684" fill="#090814"/>
<path d="M237.404 256.384L223.93 353.057C222.524 352.229 221.175 351.322 219.889 350.342L228.5 255.552L237.404 256.383V256.384Z" fill="#090814"/>
<path d="M357.288 154.432L287.731 103.06L237.771 181.237V131.911L295.678 80.4346L342.049 84.7156L357.288 154.432Z" fill="#090814"/>
<path d="M449.422 398.084L292.772 462.653C290.218 463.703 287.316 463.775 284.704 462.852C282.092 461.93 279.984 460.088 278.841 457.732L198.564 291.751C197.426 289.393 197.348 286.714 198.347 284.303C199.346 281.891 201.34 279.945 203.892 278.889L360.545 214.321C363.1 213.271 366.001 213.2 368.612 214.122C371.223 215.045 373.331 216.886 374.474 219.242L454.754 385.226C455.892 387.585 455.97 390.263 454.97 392.675C453.971 395.086 451.976 397.032 449.423 398.087L449.422 398.084Z" fill="#D6D6E3"/>
<path d="M442.208 394.581L296.777 448.913C294.372 449.901 291.641 449.968 289.183 449.1C286.725 448.232 284.741 446.499 283.665 444.281L206.096 294.498C205.025 292.278 204.952 289.757 205.893 287.487C206.833 285.218 208.711 283.385 211.113 282.392L358.552 221.619C360.957 220.631 363.688 220.564 366.146 221.432C368.604 222.301 370.589 224.034 371.664 226.251L447.225 382.477C448.295 384.696 448.368 387.217 447.428 389.487C446.487 391.756 444.61 393.587 442.208 394.581Z" fill="white"/>
<path d="M235.78 329.89L229.504 445.692L186.023 448.466L201.263 328.365C195.249 322.44 191.65 313.604 192.155 303.882C193.038 286.868 206.116 273.626 221.367 274.3C236.618 274.975 248.268 289.31 247.382 306.324C246.877 316.046 242.38 324.524 235.78 329.89Z" fill="#ED9DA0"/>
<path d="M385.252 394.785L395.482 393.626L397.59 409.474C397.59 409.474 394.583 405.116 392.025 405.406C389.468 405.696 387.36 410.634 387.36 410.634L385.252 394.785Z" fill="#090814"/>
<path d="M397.094 393.359L404.873 387.117L416.22 399.168C416.22 399.168 412.173 398.404 410.228 399.964C408.283 401.525 408.441 405.41 408.441 405.41L397.094 393.359Z" fill="#090814"/>
<path d="M356.075 296.9L274.303 330.514C273.002 331.049 271.524 331.085 270.194 330.614C268.864 330.143 267.792 329.203 267.212 328.002C266.633 326.801 266.594 325.436 267.104 324.209C267.615 322.981 268.632 321.991 269.934 321.456L351.705 287.841C353.007 287.306 354.485 287.27 355.815 287.741C357.144 288.213 358.217 289.152 358.796 290.353C359.376 291.555 359.415 292.919 358.904 294.147C358.394 295.374 357.376 296.365 356.075 296.9Z" fill="#090814"/>
<path d="M282.219 302.233L264.229 309.629C262.928 310.164 261.45 310.199 260.12 309.728C258.79 309.257 257.717 308.318 257.138 307.116C256.558 305.915 256.52 304.55 257.03 303.323C257.54 302.095 258.558 301.105 259.859 300.57L277.849 293.175C279.15 292.64 280.629 292.604 281.958 293.075C283.288 293.546 284.361 294.486 284.94 295.687C285.52 296.888 285.558 298.253 285.048 299.481C284.538 300.708 283.52 301.699 282.219 302.233Z" fill="#33A0DF"/>
<path d="M366.149 317.784L284.377 351.399C283.076 351.934 281.598 351.97 280.268 351.499C278.938 351.028 277.866 350.088 277.286 348.887C276.707 347.686 276.668 346.321 277.178 345.093C277.689 343.866 278.707 342.875 280.008 342.341L361.78 308.726C363.081 308.191 364.559 308.155 365.889 308.626C367.219 309.097 368.291 310.037 368.871 311.238C369.45 312.439 369.489 313.804 368.978 315.032C368.468 316.259 367.45 317.249 366.149 317.784Z" fill="#090814"/>
<path d="M376.223 338.67L294.452 372.285C293.15 372.82 291.672 372.856 290.342 372.384C289.013 371.913 287.94 370.974 287.361 369.772C286.781 368.571 286.742 367.207 287.253 365.979C287.763 364.751 288.781 363.761 290.082 363.226L371.854 329.611C373.155 329.076 374.633 329.041 375.963 329.512C377.293 329.983 378.365 330.923 378.945 332.124C379.524 333.325 379.563 334.69 379.053 335.917C378.542 337.145 377.525 338.135 376.223 338.67Z" fill="#090814"/>
<path d="M378.548 360.325C382.409 358.738 386.693 358.244 390.859 358.904C395.024 359.565 398.884 361.351 401.95 364.036C405.016 366.722 407.151 370.187 408.084 373.993C409.017 377.798 408.706 381.774 407.192 385.417C405.677 389.059 403.027 392.206 399.575 394.458C396.124 396.71 392.026 397.967 387.801 398.069C383.576 398.171 379.413 397.115 375.838 395.033C372.264 392.951 369.438 389.937 367.719 386.373C365.413 381.593 365.259 376.163 367.289 371.279C369.32 366.394 373.37 362.454 378.548 360.325Z" fill="#33A0DF"/>
<path d="M389.32 388.873C388.982 389.012 388.615 389.076 388.246 389.061C387.878 389.045 387.518 388.951 387.196 388.785L378.707 384.419C378.157 384.135 377.75 383.662 377.578 383.102C377.406 382.542 377.481 381.942 377.788 381.433C378.095 380.925 378.608 380.55 379.215 380.391C379.821 380.231 380.471 380.301 381.022 380.585L386.575 383.441L389.547 367.37C389.595 367.082 389.704 366.806 389.869 366.557C390.033 366.309 390.25 366.093 390.506 365.922C390.762 365.752 391.052 365.63 391.36 365.565C391.667 365.499 391.986 365.49 392.297 365.539C392.608 365.588 392.905 365.694 393.171 365.85C393.438 366.006 393.668 366.21 393.848 366.449C394.028 366.688 394.155 366.958 394.221 367.243C394.287 367.528 394.291 367.822 394.233 368.108L390.696 387.237C390.632 387.583 390.479 387.909 390.251 388.189C390.022 388.469 389.724 388.695 389.382 388.846L389.32 388.873Z" fill="white"/>
</g>
<defs>
<filter id="filter0_d_721_310" x="0" y="0.633789" width="825.336" height="667.404" filterUnits="userSpaceOnUse" color-interpolation-filters="sRGB">
<feFlood flood-opacity="0" result="BackgroundImageFix"/>
<feColorMatrix in="SourceAlpha" type="matrix" values="0 0 0 0 0 0 0 0 0 0 0 0 0 0 0 0 0 0 127 0" result="hardAlpha"/>
<feOffset dy="4"/>
<feGaussianBlur stdDeviation="50"/>
<feComposite in2="hardAlpha" operator="out"/>
<feColorMatrix type="matrix" values="0 0 0 0 0 0 0 0 0 0 0 0 0 0 0 0 0 0 0.25 0"/>
<feBlend mode="normal" in2="BackgroundImageFix" result="effect1_dropShadow_721_310"/>
<feBlend mode="normal" in="SourceGraphic" in2="effect1_dropShadow_721_310" result="shape"/>
</filter>
<linearGradient id="paint0_linear_721_310" x1="110.343" y1="319.418" x2="682.676" y2="319.418" gradientUnits="userSpaceOnUse">
<stop stop-color="#33A1E0"/>
<stop offset="1" stop-color="#266299"/>
</linearGradient>
<clipPath id="clip0_721_310">
<rect width="278" height="417" fill="white" transform="translate(186 64)"/>
</clipPath>
</defs>
</svg>
