<svg width="610" height="1002" viewBox="0 0 610 1002" fill="none" xmlns="http://www.w3.org/2000/svg">
<g filter="url(#filter0_d_721_307)">
<path d="M588.5 930.483C785.361 930.483 1003.9 691.004 1003.9 507.344C1003.9 323.685 719.861 370.25 523 370.25C326.139 370.25 291 323.685 291 507.344C291 691.004 391.639 930.483 588.5 930.483Z" fill="url(#paint0_linear_721_307)"/>
</g>
<g filter="url(#filter1_f_721_307)">
<circle cx="718.5" cy="474.5" r="360.5" fill="url(#paint1_radial_721_307)"/>
</g>
<g filter="url(#filter2_d_721_307)">
<path d="M651.204 333.832C705.512 332.336 759.442 332.257 807.212 337.91C854.991 343.565 896.545 354.949 926.146 376.336C955.715 397.7 973.396 429.072 973.396 474.833C973.396 566.487 918.851 672.154 839.659 754.929C760.468 837.703 656.741 897.471 558.5 897.471C460.304 897.471 386.068 837.752 336.355 755.017C286.641 672.277 261.5 566.584 261.5 474.833C261.5 428.916 263.699 397.456 270.046 376.072C273.217 365.389 277.416 357.247 282.874 351.077C288.328 344.912 295.061 340.692 303.338 337.887C319.928 332.265 342.678 332.335 373.675 333.832C404.639 335.327 443.769 338.238 493 338.238C542.223 338.238 596.912 335.327 651.204 333.832Z" stroke="#266299" shape-rendering="crispEdges"/>
</g>
<g clip-path="url(#clip0_721_307)">
<path d="M185.218 645.002C183.677 641.308 183.508 637.184 184.741 633.376C185.974 629.567 188.528 626.326 191.941 624.236C193.078 623.545 192.039 621.753 190.896 622.448C186.981 624.787 184.059 628.48 182.683 632.829C181.307 637.179 181.573 641.881 183.431 646.047C183.953 647.269 185.737 646.215 185.218 645.002Z" fill="#3F3D56"/>
<path d="M185.81 647.787C183.018 642.839 183.675 636.918 184.68 631.567C185.728 625.981 187.102 620.31 185.913 614.629C185.374 611.871 184.097 609.311 182.219 607.22C181.315 606.238 179.854 607.705 180.756 608.685C184.267 612.5 184.674 618.034 184.105 622.949C183.433 628.746 181.529 634.395 181.765 640.285C181.827 643.273 182.601 646.203 184.023 648.832C184.166 649.059 184.392 649.222 184.653 649.285C184.914 649.349 185.19 649.309 185.421 649.173C185.653 649.038 185.823 648.817 185.896 648.559C185.969 648.3 185.938 648.023 185.81 647.787Z" fill="#3F3D56"/>
<path d="M200.794 663.588H165.603C164.78 663.587 163.991 663.259 163.409 662.677C162.826 662.095 162.499 661.305 162.498 660.482V650.142C162.501 647.485 163.558 644.937 165.436 643.059C167.314 641.18 169.861 640.123 172.517 640.12H177.678C177.953 640.12 178.216 640.01 178.41 639.816C178.604 639.622 178.713 639.359 178.713 639.085V634.253C178.714 633.795 178.896 633.357 179.219 633.033C179.543 632.71 179.981 632.528 180.438 632.527H185.959C186.416 632.528 186.854 632.71 187.178 633.033C187.501 633.357 187.683 633.795 187.684 634.253V639.085C187.684 639.359 187.793 639.622 187.987 639.816C188.181 640.01 188.444 640.12 188.719 640.12H193.88C196.536 640.123 199.083 641.18 200.961 643.059C202.839 644.937 203.896 647.485 203.899 650.142V660.482C203.898 661.305 203.571 662.095 202.988 662.677C202.406 663.26 201.617 663.587 200.794 663.588Z" fill="#872020"/>
<path d="M183.74 601.493C184.48 605.427 183.563 608.901 181.691 609.254C179.818 609.607 177.7 606.705 176.959 602.771C176.218 598.838 178.497 592.297 178.497 592.297C178.497 592.297 182.999 597.56 183.74 601.493Z" fill="#01B671"/>
<path d="M197.949 619.793C195.602 623.035 192.449 624.758 190.906 623.64C189.362 622.522 190.013 618.988 192.359 615.746C194.706 612.503 201.021 609.662 201.021 609.662C201.021 609.662 200.295 616.551 197.949 619.793Z" fill="#01B671"/>
<path d="M120.357 396.517C118.816 392.822 118.646 388.699 119.879 384.89C121.112 381.082 123.666 377.84 127.08 375.751C128.216 375.06 127.177 373.268 126.035 373.963C122.12 376.302 119.197 379.995 117.822 384.344C116.446 388.693 116.712 393.396 118.569 397.562C119.092 398.783 120.875 397.73 120.357 396.517Z" fill="#3F3D56"/>
<path d="M120.949 399.302C118.157 394.354 118.814 388.433 119.818 383.083C120.867 377.497 122.241 371.826 121.052 366.145C120.513 363.387 119.236 360.826 117.358 358.736C116.454 357.754 114.993 359.221 115.894 360.2C119.406 364.015 119.813 369.549 119.243 374.464C118.572 380.261 116.668 385.91 116.904 391.801C116.966 394.789 117.74 397.719 119.162 400.348C119.305 400.575 119.531 400.737 119.792 400.801C120.053 400.865 120.328 400.824 120.56 400.689C120.792 400.553 120.962 400.333 121.035 400.074C121.107 399.816 121.076 399.539 120.949 399.302Z" fill="#3F3D56"/>
<path d="M135.933 415.103H100.742C99.9186 415.102 99.1293 414.774 98.5472 414.192C97.9651 413.61 97.6376 412.82 97.6367 411.997V401.656C97.6398 398.999 98.6963 396.452 100.575 394.573C102.453 392.694 104.999 391.638 107.655 391.635H112.817C113.091 391.634 113.355 391.525 113.549 391.331C113.743 391.137 113.852 390.874 113.852 390.599V385.768C113.853 385.31 114.034 384.871 114.358 384.548C114.681 384.224 115.12 384.043 115.577 384.042H121.097C121.555 384.043 121.993 384.224 122.316 384.548C122.64 384.871 122.822 385.31 122.822 385.768V390.599C122.823 390.874 122.932 391.137 123.126 391.331C123.32 391.525 123.583 391.634 123.857 391.635H129.019C131.675 391.638 134.222 392.694 136.1 394.573C137.978 396.452 139.035 398.999 139.038 401.656V411.997C139.037 412.82 138.709 413.61 138.127 414.192C137.545 414.774 136.756 415.102 135.933 415.103Z" fill="#872020"/>
<path d="M118.878 353.009C119.619 356.942 118.702 360.417 116.829 360.77C114.957 361.123 112.838 358.22 112.097 354.287C111.356 350.353 113.635 343.812 113.635 343.812C113.635 343.812 118.137 349.075 118.878 353.009Z" fill="#01B671"/>
<path d="M133.087 371.309C130.741 374.551 127.588 376.273 126.044 375.156C124.501 374.038 125.152 370.504 127.498 367.261C129.844 364.019 136.16 361.178 136.16 361.178C136.16 361.178 135.434 368.066 133.087 371.309Z" fill="#01B671"/>
<path d="M50.3707 521.744H22.0801V532.098H50.3707V521.744Z" fill="#33A0DF"/>
<path d="M50.3707 555.565H22.0801V565.919H50.3707V555.565Z" fill="#33A0DF"/>
<path d="M222.875 743.31H11.7302C8.62026 743.306 5.63866 742.069 3.43956 739.869C1.24047 737.669 0.00348646 734.687 0 731.576V345.734C0.00348646 342.623 1.24047 339.64 3.43956 337.441C5.63866 335.241 8.62026 334.003 11.7302 334H222.875C225.985 334.004 228.966 335.241 231.165 337.441C233.364 339.64 234.601 342.623 234.605 345.734V731.576C234.601 734.687 233.364 737.669 231.165 739.869C228.966 742.069 225.985 743.306 222.875 743.31ZM11.7302 335.38C8.98615 335.384 6.35534 336.475 4.41497 338.416C2.4746 340.357 1.38313 342.989 1.38003 345.734V731.576C1.38313 734.321 2.4746 736.952 4.41497 738.893C6.35534 740.834 8.98615 741.926 11.7302 741.929H222.875C225.619 741.926 228.25 740.834 230.19 738.893C232.13 736.952 233.222 734.321 233.225 731.576V345.734C233.222 342.989 232.13 340.357 230.19 338.416C228.25 336.475 225.619 335.384 222.875 335.38H11.7302Z" fill="#3F3D56"/>
<path d="M233.914 413.689H0.689453V415.07H233.914V413.689Z" fill="#3F3D56"/>
<path d="M233.914 496.54H0.689453V497.921H233.914V496.54Z" fill="#3F3D56"/>
<path d="M233.914 579.39H0.689453V580.77H233.914V579.39Z" fill="#3F3D56"/>
<path d="M233.914 662.24H0.689453V663.621H233.914V662.24Z" fill="#3F3D56"/>
<path d="M48.3012 581.104H24.8407C23.926 581.103 23.0491 580.739 22.4023 580.092C21.7555 579.445 21.3917 578.568 21.3906 577.653V510.7C21.3917 509.785 21.7555 508.908 22.4023 508.261C23.0491 507.614 23.926 507.25 24.8407 507.249H48.3012C49.2159 507.25 50.0928 507.614 50.7396 508.261C51.3864 508.908 51.7502 509.785 51.7513 510.7V577.653C51.7502 578.568 51.3864 579.445 50.7396 580.092C50.0928 580.739 49.2159 581.103 48.3012 581.104ZM24.8407 508.629C24.2919 508.63 23.7657 508.848 23.3776 509.237C22.9896 509.625 22.7713 510.151 22.7707 510.7V577.653C22.7713 578.202 22.9896 578.728 23.3776 579.117C23.7657 579.505 24.2919 579.723 24.8407 579.724H48.3012C48.85 579.723 49.3762 579.505 49.7642 579.117C50.1523 578.728 50.3706 578.202 50.3712 577.653V510.7C50.3706 510.151 50.1523 509.625 49.7642 509.237C49.3762 508.848 48.85 508.63 48.3012 508.629H24.8407Z" fill="#3F3D56"/>
<path d="M93.8414 521.744H65.5508V532.098H93.8414V521.744Z" fill="#33A0DF"/>
<path d="M93.8414 555.565H65.5508V565.919H93.8414V555.565Z" fill="#33A0DF"/>
<path d="M91.7719 581.104H68.3114C67.3967 581.103 66.5198 580.739 65.873 580.092C65.2262 579.445 64.8624 578.568 64.8613 577.653V510.7C64.8624 509.785 65.2262 508.908 65.873 508.261C66.5198 507.614 67.3967 507.25 68.3114 507.249H91.7719C92.6866 507.25 93.5635 507.614 94.2103 508.261C94.8571 508.908 95.2209 509.785 95.222 510.7V577.653C95.2209 578.568 94.8571 579.445 94.2103 580.092C93.5635 580.739 92.6866 581.103 91.7719 581.104ZM68.3114 508.629C67.7626 508.63 67.2364 508.848 66.8483 509.237C66.4603 509.625 66.242 510.151 66.2414 510.7V577.653C66.242 578.202 66.4603 578.728 66.8483 579.117C67.2364 579.505 67.7626 579.723 68.3114 579.724H91.7719C92.3207 579.723 92.8469 579.505 93.235 579.117C93.623 578.728 93.8413 578.202 93.8419 577.653V510.7C93.8413 510.151 93.623 509.625 93.235 509.237C92.8469 508.848 92.3207 508.63 91.7719 508.629H68.3114Z" fill="#3F3D56"/>
<path d="M162.843 438.226H134.553V448.579H162.843V438.226Z" fill="#33A0DF"/>
<path d="M162.843 472.047H134.553V482.4H162.843V472.047Z" fill="#33A0DF"/>
<path d="M160.774 497.586H137.313C136.399 497.585 135.522 497.221 134.875 496.574C134.228 495.927 133.864 495.049 133.863 494.135V427.182C133.864 426.267 134.228 425.389 134.875 424.742C135.522 424.095 136.399 423.732 137.313 423.73H160.774C161.689 423.732 162.565 424.095 163.212 424.742C163.859 425.389 164.223 426.267 164.224 427.182V494.135C164.223 495.049 163.859 495.927 163.212 496.574C162.565 497.221 161.689 497.585 160.774 497.586ZM137.313 425.111C136.765 425.112 136.238 425.33 135.85 425.718C135.462 426.106 135.244 426.633 135.243 427.182V494.135C135.244 494.684 135.462 495.21 135.85 495.598C136.238 495.986 136.765 496.205 137.313 496.205H160.774C161.323 496.205 161.849 495.986 162.237 495.598C162.625 495.21 162.843 494.684 162.844 494.135V427.182C162.843 426.633 162.625 426.106 162.237 425.718C161.849 425.33 161.323 425.112 160.774 425.111H137.313Z" fill="#3F3D56"/>
<path d="M206.314 438.226H178.023V448.579H206.314V438.226Z" fill="#33A0DF"/>
<path d="M206.314 472.047H178.023V482.4H206.314V472.047Z" fill="#33A0DF"/>
<path d="M204.245 497.586H180.784C179.869 497.585 178.992 497.221 178.346 496.574C177.699 495.927 177.335 495.049 177.334 494.135V427.182C177.335 426.267 177.699 425.389 178.346 424.742C178.992 424.095 179.869 423.732 180.784 423.73H204.245C205.159 423.732 206.036 424.095 206.683 424.742C207.33 425.389 207.694 426.267 207.695 427.182V494.135C207.694 495.049 207.33 495.927 206.683 496.574C206.036 497.221 205.159 497.585 204.245 497.586ZM180.784 425.111C180.235 425.112 179.709 425.33 179.321 425.718C178.933 426.106 178.715 426.633 178.714 427.182V494.135C178.715 494.684 178.933 495.21 179.321 495.598C179.709 495.986 180.235 496.205 180.784 496.205H204.245C204.793 496.205 205.32 495.986 205.708 495.598C206.096 495.21 206.314 494.684 206.315 494.135V427.182C206.314 426.633 206.096 426.106 205.708 425.718C205.32 425.33 204.793 425.112 204.245 425.111H180.784Z" fill="#3F3D56"/>
<path d="M128.543 515.561L102.061 525.516L105.701 535.207L132.184 525.253L128.543 515.561Z" fill="#33A0DF"/>
<path d="M140.436 547.221L113.953 557.176L117.594 566.868L144.076 556.913L140.436 547.221Z" fill="#33A0DF"/>
<path d="M124.301 580.333C123.599 580.332 122.915 580.117 122.338 579.717C121.762 579.317 121.32 578.751 121.073 578.094L97.5298 515.42C97.2091 514.563 97.2413 513.614 97.6192 512.781C97.9971 511.948 98.6899 511.298 99.5457 510.976L121.507 502.721C121.931 502.561 122.383 502.487 122.835 502.502C123.288 502.517 123.734 502.621 124.146 502.808C124.559 502.996 124.931 503.262 125.24 503.593C125.55 503.924 125.791 504.313 125.95 504.737L149.494 567.411C149.814 568.268 149.782 569.217 149.404 570.051C149.026 570.884 148.334 571.533 147.478 571.856L125.516 580.111C125.128 580.257 124.716 580.333 124.301 580.333ZM122.722 503.879C122.473 503.88 122.226 503.925 121.992 504.013L100.031 512.268C99.5178 512.462 99.102 512.851 98.8753 513.351C98.6485 513.851 98.6292 514.42 98.8216 514.935L122.365 577.609C122.461 577.863 122.605 578.096 122.791 578.295C122.977 578.494 123.2 578.654 123.447 578.766C123.695 578.878 123.962 578.941 124.234 578.95C124.506 578.959 124.777 578.914 125.031 578.819L146.992 570.564C147.506 570.37 147.921 569.98 148.148 569.48C148.375 568.98 148.394 568.411 148.202 567.897L124.658 505.223C124.51 504.829 124.245 504.489 123.899 504.249C123.553 504.009 123.143 503.88 122.722 503.879Z" fill="#3F3D56"/>
<path d="M33.3205 433.422L6.83789 443.377L10.4786 453.069L36.9612 443.114L33.3205 433.422Z" fill="#33A0DF"/>
<path d="M45.2131 465.083L18.7305 475.037L22.3712 484.729L48.8538 474.774L45.2131 465.083Z" fill="#33A0DF"/>
<path d="M29.0803 498.195C28.3787 498.194 27.6941 497.979 27.1175 497.579C26.541 497.179 26.0998 496.613 25.8525 495.956L2.30909 433.282C1.98843 432.425 2.02058 431.476 2.39849 430.643C2.7764 429.81 3.4692 429.161 4.32497 428.838L26.2863 420.583C26.7105 420.424 27.1618 420.349 27.6147 420.364C28.0675 420.379 28.513 420.483 28.9256 420.671C29.3382 420.858 29.7098 421.125 30.0194 421.456C30.3289 421.787 30.5702 422.175 30.7295 422.6L54.2729 485.274C54.5936 486.131 54.5615 487.08 54.1836 487.913C53.8056 488.746 53.1128 489.395 52.2571 489.718L30.2957 497.973C29.9073 498.12 29.4955 498.195 29.0803 498.195ZM27.5011 421.742C27.2519 421.742 27.0049 421.787 26.7718 421.875L4.81056 430.13C4.29705 430.324 3.88132 430.713 3.65455 431.213C3.42779 431.713 3.4085 432.283 3.60093 432.797L27.1444 495.471C27.24 495.725 27.3848 495.959 27.5705 496.157C27.7562 496.356 27.9792 496.516 28.2268 496.628C28.4743 496.741 28.7416 496.803 29.0133 496.812C29.285 496.821 29.5558 496.777 29.8103 496.681L51.7715 488.426C52.285 488.232 52.7007 487.843 52.9275 487.343C53.1543 486.843 53.1735 486.273 52.9811 485.759L29.4376 423.085C29.2893 422.691 29.0246 422.352 28.6787 422.112C28.3328 421.872 27.922 421.743 27.5011 421.742Z" fill="#3F3D56"/>
<path d="M432.638 506.559C444.452 506.559 454.029 496.979 454.029 485.162C454.029 473.345 444.452 463.765 432.638 463.765C420.825 463.765 411.248 473.345 411.248 485.162C411.248 496.979 420.825 506.559 432.638 506.559Z" fill="#164070"/>
<path d="M337.61 582.81C338.621 583.202 339.705 583.367 340.786 583.294C341.867 583.221 342.919 582.912 343.868 582.389C344.817 581.865 345.64 581.14 346.278 580.264C346.916 579.388 347.355 578.383 347.563 577.319L406.378 540.199L395.673 528.143L341.201 568.446C339.391 568.215 337.559 568.656 336.053 569.686C334.546 570.716 333.47 572.262 333.027 574.033C332.585 575.804 332.807 577.675 333.651 579.293C334.496 580.91 335.905 582.162 337.61 582.81Z" fill="#FFB8B8"/>
<path d="M394.1 550.067C393.579 550.068 393.067 549.938 392.609 549.689C392.152 549.44 391.764 549.08 391.482 548.643L384.671 538.055C384.242 537.387 384.084 536.579 384.232 535.798C384.379 535.018 384.82 534.323 385.464 533.857L408.255 517.379C409.361 516.58 410.616 516.01 411.946 515.704C413.275 515.398 414.653 515.362 415.997 515.598C417.341 515.834 418.624 516.337 419.77 517.078C420.917 517.819 421.903 518.782 422.67 519.911C423.438 521.039 423.971 522.31 424.239 523.649C424.507 524.987 424.503 526.366 424.229 527.703C423.955 529.04 423.416 530.309 422.643 531.434C421.87 532.559 420.879 533.517 419.73 534.252L395.766 549.579C395.269 549.898 394.69 550.067 394.1 550.067Z" fill="#164070"/>
<path d="M404.275 734.924L395.816 734.923L391.791 702.283L404.277 702.284L404.275 734.924Z" fill="#FFB8B8"/>
<path d="M389.774 732.505H406.089V742.78H379.502C379.502 741.431 379.768 740.095 380.284 738.848C380.8 737.601 381.557 736.469 382.511 735.515C383.464 734.56 384.597 733.803 385.843 733.287C387.089 732.771 388.425 732.505 389.774 732.505Z" fill="#164070"/>
<path d="M443.768 728.597L435.623 730.884L422.928 700.548L434.948 697.172L443.768 728.597Z" fill="#FFB8B8"/>
<path d="M429.152 730.19L444.859 725.779L447.635 735.672L422.038 742.86C421.673 741.561 421.568 740.202 421.728 738.863C421.889 737.523 422.311 736.228 422.972 735.051C423.632 733.874 424.518 732.84 425.578 732.006C426.639 731.171 427.853 730.554 429.152 730.19Z" fill="#164070"/>
<path d="M466.561 678.506L433.719 639.735L453.647 615.546C453.94 615.192 454.307 614.906 454.723 614.711C455.139 614.515 455.593 614.415 456.052 614.416C456.512 614.417 456.965 614.521 457.38 614.719C457.795 614.917 458.16 615.204 458.451 615.561L488.605 652.581L466.561 678.506Z" fill="#33A0DF"/>
<path d="M435.043 640.023C435.527 639.152 436.127 638.35 436.828 637.64L455.849 618.349C456.595 617.59 457.599 617.139 458.662 617.086C460.835 616.984 464.4 617.203 465.393 619.589L439.712 640.607L435.043 640.023Z" fill="#F2F2F2"/>
<path d="M467.702 686.709C466.238 686.666 464.814 686.215 463.591 685.407L463.501 685.313L433.422 639.296L438.413 638.814L465.163 617.942C465.5 617.679 465.889 617.488 466.304 617.382C466.719 617.276 467.151 617.257 467.574 617.326C467.996 617.395 468.4 617.551 468.76 617.784C469.119 618.017 469.427 618.321 469.663 618.679L498.903 662.949C499.352 663.633 499.514 664.465 499.354 665.267C499.194 666.07 498.725 666.777 498.049 667.236L469.754 686.321C469.101 686.581 468.405 686.713 467.702 686.709Z" fill="#33A0DF"/>
<path d="M457.063 655.231C456.78 655.232 456.501 655.162 456.251 655.03C456.001 654.897 455.788 654.705 455.63 654.47L452.174 649.336C451.919 648.956 451.825 648.49 451.913 648.041C452.001 647.592 452.263 647.196 452.642 646.94L470.369 635.002C470.749 634.747 471.214 634.653 471.663 634.741C472.112 634.829 472.507 635.091 472.764 635.47L476.219 640.604C476.474 640.984 476.568 641.449 476.48 641.898C476.392 642.348 476.13 642.744 475.751 643L458.024 654.938C457.74 655.129 457.405 655.231 457.063 655.231Z" fill="#3F3D56"/>
<path d="M390.453 729.987C389.509 729.984 388.601 729.627 387.907 728.988C387.212 728.349 386.782 727.473 386.7 726.533C385.195 709.425 377.642 623.205 376.813 605.792C375.893 586.446 391.989 555.839 392.151 555.533L392.263 555.322L400.219 556.317V557.242L407.791 558.133L422.446 559.552L426.641 610.849L428.496 645.639L445.926 716.694C446.123 717.481 446.003 718.314 445.592 719.013C445.18 719.712 444.511 720.221 443.727 720.431L428.558 724.569C427.769 724.781 426.929 724.674 426.218 724.273C425.507 723.872 424.981 723.207 424.755 722.423L410.473 672.238C410.404 671.995 410.248 671.786 410.036 671.649C409.823 671.513 409.568 671.46 409.319 671.498C409.069 671.537 408.843 671.666 408.681 671.86C408.52 672.054 408.435 672.301 408.443 672.553L409.954 721.488C409.961 721.99 409.866 722.489 409.674 722.953C409.482 723.417 409.198 723.838 408.838 724.188C405.361 727.455 396.173 729.198 391.007 729.947C390.823 729.974 390.638 729.987 390.453 729.987Z" fill="#164070"/>
<path d="M436.033 514.423C433.626 511.913 417.766 515.362 414.245 519.06L390.139 558.477L430.006 565.897L438.814 515.814L436.033 514.423Z" fill="#DFD933"/>
<path d="M425.584 614.566C424.725 614.567 423.872 614.425 423.06 614.146C420.744 613.351 417.905 612.519 414.623 611.675C400.247 607.977 395.172 596.138 399.537 576.487L399.648 575.988C403.747 557.347 411.474 539.695 422.388 524.039L424.079 521.61C426.12 518.679 428.976 516.413 432.294 515.093C435.612 513.773 439.245 513.457 442.74 514.186C449.209 515.52 452.682 517.454 453.063 519.934C453.812 524.8 439.363 583.622 433.117 608.686C432.698 610.367 431.729 611.859 430.364 612.925C428.998 613.991 427.315 614.569 425.584 614.566Z" fill="#164070"/>
<path d="M376.061 607.015C375.685 607.015 375.312 606.957 374.954 606.842L370.294 605.351C369.813 605.197 369.368 604.944 368.99 604.608C368.612 604.272 368.308 603.861 368.097 603.401C367.887 602.941 367.775 602.442 367.768 601.936C367.761 601.43 367.86 600.929 368.058 600.463L392.782 542.412C397.52 531.338 405.802 522.153 416.328 516.302C416.481 516.218 416.649 516.166 416.823 516.15C416.996 516.134 417.171 516.153 417.337 516.208C417.489 516.256 417.629 516.336 417.749 516.442C417.868 516.548 417.964 516.678 418.03 516.823C420.938 523.222 405.111 553.505 392.394 577.837C385.883 590.296 380.259 601.057 379.619 604.125C379.448 604.942 379.001 605.676 378.353 606.202C377.705 606.728 376.896 607.015 376.061 607.015Z" fill="#164070"/>
<path d="M452.552 620.243C453.421 619.595 454.137 618.764 454.649 617.809C455.162 616.854 455.459 615.798 455.52 614.715C455.58 613.633 455.403 612.551 455 611.544C454.597 610.538 453.979 609.632 453.188 608.891L452.992 539.326L437.094 541.994L442.294 609.57C441.137 610.981 440.537 612.768 440.609 614.591C440.681 616.415 441.419 618.149 442.684 619.465C443.948 620.78 445.651 621.586 447.47 621.73C449.289 621.873 451.097 621.344 452.552 620.243Z" fill="#FFB8B8"/>
<path d="M439.608 556.584C438.821 556.584 438.062 556.284 437.487 555.746C436.912 555.207 436.563 554.47 436.511 553.683L434.662 525.614C434.487 522.913 435.39 520.254 437.174 518.218C438.957 516.183 441.474 514.938 444.173 514.756C445.559 514.665 446.949 514.858 448.258 515.323C449.567 515.788 450.768 516.515 451.786 517.46C452.804 518.405 453.618 519.548 454.18 520.819C454.741 522.09 455.036 523.462 455.049 524.852L455.3 553.303C455.306 554.125 454.986 554.916 454.411 555.503C453.837 556.09 453.053 556.426 452.232 556.437L439.646 556.584L439.608 556.584Z" fill="#164070"/>
<path d="M428.233 507.647C437.592 507.647 445.18 500.057 445.18 490.694C445.18 481.331 437.592 473.741 428.233 473.741C418.873 473.741 411.285 481.331 411.285 490.694C411.285 500.057 418.873 507.647 428.233 507.647Z" fill="#FFB8B8"/>
<path d="M442.325 502.557C443.589 498.533 444.749 493.788 442.248 490.393C440.445 487.946 437.209 486.999 434.174 486.864C431.139 486.728 428.095 487.243 425.067 487.002C422.038 486.761 418.837 485.565 417.299 482.945C415.304 479.547 416.993 474.866 420.201 472.578C423.408 470.289 427.645 469.97 431.548 470.503C436.487 471.089 441.131 473.167 444.86 476.459C448.488 479.809 450.853 484.637 450.748 489.575C450.642 494.513 447.874 499.43 443.462 501.647" fill="#164070"/>
<path d="M438.097 465.513C434.04 464.263 432.169 458.897 433.983 455.058C435.797 451.219 440.435 449.209 444.647 449.743C448.858 450.278 452.569 452.981 455.129 456.369C457.688 459.756 459.232 463.795 460.519 467.842C461.806 471.888 462.876 476.023 464.634 479.888C467.423 485.827 471.726 490.928 477.109 494.677C482.493 498.426 488.769 500.691 495.305 501.246C498.154 501.452 501.111 501.304 503.707 500.113C506.304 498.922 508.481 496.52 508.772 493.678C510.25 503.775 504.377 514.506 495.078 518.702C485.778 522.898 473.85 520.199 467.261 512.407C460.823 504.793 459.826 494.043 459.98 484.072C460.023 481.337 460.124 478.551 459.368 475.923C458.613 473.295 456.826 470.795 454.223 469.961C452.122 469.287 449.847 469.773 447.694 470.25C445.54 470.728 443.254 471.187 441.168 470.467C439.083 469.748 437.405 467.376 438.245 465.336" fill="#164070"/>
</g>
<defs>
<filter id="filter0_d_721_307" x="239" y="316.979" width="816.896" height="669.504" filterUnits="userSpaceOnUse" color-interpolation-filters="sRGB">
<feFlood flood-opacity="0" result="BackgroundImageFix"/>
<feColorMatrix in="SourceAlpha" type="matrix" values="0 0 0 0 0 0 0 0 0 0 0 0 0 0 0 0 0 0 127 0" result="hardAlpha"/>
<feOffset dy="4"/>
<feGaussianBlur stdDeviation="26"/>
<feComposite in2="hardAlpha" operator="out"/>
<feColorMatrix type="matrix" values="0 0 0 0 0 0 0 0 0 0 0 0 0 0 0 0 0 0 0.25 0"/>
<feBlend mode="normal" in2="BackgroundImageFix" result="effect1_dropShadow_721_307"/>
<feBlend mode="normal" in="SourceGraphic" in2="effect1_dropShadow_721_307" result="shape"/>
</filter>
<filter id="filter1_f_721_307" x="244" y="0" width="949" height="949" filterUnits="userSpaceOnUse" color-interpolation-filters="sRGB">
<feFlood flood-opacity="0" result="BackgroundImageFix"/>
<feBlend mode="normal" in="SourceGraphic" in2="BackgroundImageFix" result="shape"/>
<feGaussianBlur stdDeviation="57" result="effect1_foregroundBlur_721_307"/>
</filter>
<filter id="filter2_d_721_307" x="161" y="236.467" width="912.896" height="765.504" filterUnits="userSpaceOnUse" color-interpolation-filters="sRGB">
<feFlood flood-opacity="0" result="BackgroundImageFix"/>
<feColorMatrix in="SourceAlpha" type="matrix" values="0 0 0 0 0 0 0 0 0 0 0 0 0 0 0 0 0 0 127 0" result="hardAlpha"/>
<feOffset dy="4"/>
<feGaussianBlur stdDeviation="50"/>
<feComposite in2="hardAlpha" operator="out"/>
<feColorMatrix type="matrix" values="0 0 0 0 0 0 0 0 0 0 0 0 0 0 0 0 0 0 0.25 0"/>
<feBlend mode="normal" in2="BackgroundImageFix" result="effect1_dropShadow_721_307"/>
<feBlend mode="normal" in="SourceGraphic" in2="effect1_dropShadow_721_307" result="shape"/>
</filter>
<linearGradient id="paint0_linear_721_307" x1="647.447" y1="839.89" x2="647.447" y2="174.816" gradientUnits="userSpaceOnUse">
<stop stop-color="#40A4FF"/>
<stop offset="1" stop-color="#266299"/>
</linearGradient>
<radialGradient id="paint1_radial_721_307" cx="0" cy="0" r="1" gradientUnits="userSpaceOnUse" gradientTransform="translate(718.5 474.5) rotate(-90) scale(360.5)">
<stop stop-color="#164070"/>
<stop offset="0.201923" stop-color="#205892"/>
<stop offset="0.4375" stop-color="#2564A3"/>
<stop offset="0.673077" stop-color="#2A70B4"/>
<stop offset="0.995192" stop-color="#3EA0F8"/>
</radialGradient>
<clipPath id="clip0_721_307">
<rect width="509" height="410" fill="white" transform="translate(0 334)"/>
</clipPath>
</defs>
</svg>
