<svg width="862" height="706" viewBox="0 0 862 706" fill="none" xmlns="http://www.w3.org/2000/svg">
<g filter="url(#filter0_d_721_308)">
<path d="M434.5 568.427C679.321 568.427 745.807 582.058 745.807 426.114C745.807 270.171 700.5 114.084 539.5 77.2324C295.5 44.1128 -300 68.131 -300 224.074C-300 380.018 189.679 568.427 434.5 568.427Z" fill="url(#paint0_linear_721_308)"/>
</g>
<g filter="url(#filter1_d_721_308)">
<path d="M44.3096 112.6C223.636 91.2479 433.452 93.522 555.408 110.072C635.734 128.464 687.19 176.586 718.581 239.585C749.984 302.609 761.307 380.53 761.307 458.463C761.307 497.428 757.151 525.722 747.144 546.269C737.153 566.782 721.306 579.618 697.8 587.625C674.264 595.641 643.067 598.81 602.411 599.969C561.759 601.127 511.718 600.275 450.5 600.275C328.183 600.275 144.628 553.199 -8.3584 486.619C-84.8475 453.331 -153.665 415.181 -203.351 375.626C-253.068 336.045 -283.5 295.16 -283.5 256.423C-283.5 237.108 -274.285 219.8 -257.596 204.349C-240.899 188.891 -216.748 175.319 -186.956 163.498C-127.375 139.858 -45.3623 123.277 44.3096 112.6Z" stroke="#266299" stroke-opacity="0.666667" shape-rendering="crispEdges"/>
</g>
<g filter="url(#filter2_d_721_308)">
<path d="M616.62 181.002H92.2475C89.7936 181.006 87.4416 181.928 85.7079 183.567C83.9741 185.205 83.0002 187.425 83 189.74V520.826C83.0032 523.139 83.9785 525.357 85.712 526.992C87.4456 528.628 89.7959 529.548 92.2475 529.551H616.62C619.071 529.548 621.422 528.628 623.155 526.992C624.889 525.357 625.864 523.139 625.867 520.826V189.739C625.867 187.425 624.894 185.205 623.162 183.566C621.429 181.928 619.078 181.005 616.625 181L616.62 181.002Z" fill="white"/>
<path d="M473.213 315.541H219.021C216.646 315.539 214.368 314.647 212.688 313.062C211.008 311.477 210.063 309.329 210.061 307.087V281.283C210.063 279.042 211.008 276.893 212.688 275.308C214.368 273.723 216.646 272.832 219.021 272.829H473.213C475.589 272.832 477.866 273.723 479.546 275.308C481.226 276.893 482.171 279.042 482.174 281.283V307.088C482.171 309.33 481.226 311.478 479.546 313.063C477.866 314.648 475.589 315.539 473.213 315.542V315.541ZM219.021 273.717C216.896 273.719 214.858 274.517 213.355 275.935C211.852 277.353 211.006 279.275 211.004 281.28V307.086C211.006 309.091 211.852 311.014 213.355 312.432C214.858 313.85 216.896 314.647 219.021 314.649H473.213C475.339 314.647 477.376 313.85 478.879 312.432C480.382 311.014 481.228 309.091 481.23 307.086V281.283C481.228 279.277 480.383 277.354 478.88 275.935C477.377 274.517 475.339 273.719 473.213 273.717H219.021Z" fill="#CCCCCC"/>
<path d="M253.369 308.898C250.284 308.898 247.269 308.035 244.704 306.419C242.139 304.802 240.14 302.504 238.959 299.815C237.778 297.127 237.469 294.168 238.071 291.314C238.673 288.46 240.158 285.838 242.339 283.78C244.521 281.722 247.3 280.32 250.325 279.753C253.35 279.185 256.486 279.476 259.336 280.59C262.186 281.703 264.622 283.589 266.336 286.009C268.05 288.429 268.965 291.274 268.965 294.184C268.965 296.116 268.561 298.03 267.778 299.815C266.994 301.6 265.845 303.222 264.397 304.588C262.949 305.955 261.23 307.039 259.337 307.778C257.445 308.518 255.417 308.898 253.369 308.898Z" fill="#E6E6E6"/>
<path d="M450.182 306.198H283.713C282.712 306.198 281.752 305.823 281.045 305.156C280.337 304.488 279.939 303.583 279.939 302.639C279.939 301.695 280.337 300.789 281.045 300.122C281.752 299.454 282.712 299.079 283.713 299.079H450.182C451.182 299.079 452.142 299.454 452.85 300.122C453.557 300.789 453.955 301.695 453.955 302.639C453.955 303.583 453.557 304.488 452.85 305.156C452.142 305.823 451.182 306.198 450.182 306.198Z" fill="#E6E6E6"/>
<path d="M395.95 291.071H283.711C282.71 291.071 281.75 290.696 281.043 290.029C280.335 289.361 279.938 288.456 279.938 287.512C279.938 286.568 280.335 285.662 281.043 284.995C281.75 284.327 282.71 283.952 283.711 283.952H395.95C396.951 283.952 397.911 284.327 398.618 284.995C399.326 285.662 399.723 286.568 399.723 287.512C399.723 288.456 399.326 289.361 398.618 290.029C397.911 290.696 396.951 291.071 395.95 291.071Z" fill="#E6E6E6"/>
<path d="M474.027 433.773H219.836C217.46 433.77 215.182 432.879 213.503 431.294C211.823 429.709 210.878 427.56 210.875 425.319V399.514C210.878 397.273 211.823 395.124 213.503 393.539C215.182 391.955 217.46 391.063 219.836 391.061H474.027C476.403 391.063 478.681 391.955 480.361 393.539C482.04 395.124 482.985 397.273 482.988 399.514V425.32C482.985 427.561 482.04 429.71 480.361 431.295C478.681 432.879 476.403 433.771 474.027 433.773V433.773ZM219.836 391.948C217.71 391.95 215.672 392.748 214.169 394.166C212.666 395.584 211.821 397.507 211.819 399.512V425.317C211.821 427.323 212.666 429.245 214.169 430.663C215.672 432.081 217.71 432.879 219.836 432.881H474.027C476.153 432.879 478.191 432.081 479.694 430.663C481.197 429.245 482.042 427.323 482.045 425.317V399.514C482.043 397.509 481.198 395.585 479.695 394.167C478.192 392.748 476.153 391.95 474.027 391.948H219.836Z" fill="#CCCCCC"/>
<path d="M254.183 427.13C251.099 427.13 248.083 426.267 245.518 424.65C242.953 423.033 240.954 420.736 239.773 418.047C238.593 415.358 238.284 412.4 238.886 409.545C239.487 406.691 240.973 404.069 243.154 402.011C245.335 399.953 248.114 398.552 251.139 397.984C254.165 397.416 257.301 397.707 260.151 398.821C263.001 399.935 265.437 401.821 267.151 404.241C268.864 406.66 269.779 409.505 269.779 412.415C269.779 414.348 269.376 416.261 268.592 418.046C267.808 419.831 266.66 421.454 265.211 422.82C263.763 424.186 262.044 425.27 260.152 426.01C258.26 426.749 256.231 427.13 254.183 427.13Z" fill="#E6E6E6"/>
<path d="M450.996 424.43H284.527C283.526 424.43 282.567 424.055 281.859 423.387C281.151 422.72 280.754 421.814 280.754 420.87C280.754 419.926 281.151 419.021 281.859 418.353C282.567 417.686 283.526 417.311 284.527 417.311H450.996C451.997 417.311 452.957 417.686 453.664 418.353C454.372 419.021 454.769 419.926 454.769 420.87C454.769 421.814 454.372 422.72 453.664 423.387C452.957 424.055 451.997 424.43 450.996 424.43Z" fill="#E6E6E6"/>
<path d="M396.765 409.303H284.525C283.524 409.303 282.565 408.928 281.857 408.26C281.149 407.593 280.752 406.687 280.752 405.743C280.752 404.799 281.149 403.894 281.857 403.226C282.565 402.559 283.524 402.184 284.525 402.184H396.765C397.765 402.184 398.725 402.559 399.433 403.226C400.14 403.894 400.538 404.799 400.538 405.743C400.538 406.687 400.14 407.593 399.433 408.26C398.725 408.928 397.765 409.303 396.765 409.303Z" fill="#E6E6E6"/>
<path d="M474.027 492.89H219.836C217.46 492.887 215.182 491.996 213.503 490.411C211.823 488.826 210.878 486.677 210.875 484.436V458.631C210.878 456.39 211.823 454.241 213.503 452.657C215.182 451.072 217.46 450.18 219.836 450.178H474.027C476.403 450.18 478.681 451.072 480.361 452.657C482.04 454.241 482.985 456.39 482.988 458.631V484.437C482.985 486.678 482.04 488.827 480.361 490.412C478.681 491.997 476.403 492.888 474.027 492.891V492.89ZM219.836 451.066C217.71 451.068 215.672 451.865 214.169 453.283C212.666 454.701 211.821 456.624 211.819 458.629V484.434C211.821 486.44 212.666 488.362 214.169 489.78C215.672 491.198 217.71 491.996 219.836 491.998H474.027C476.153 491.996 478.191 491.198 479.694 489.78C481.197 488.362 482.042 486.44 482.045 484.434V458.631C482.043 456.626 481.198 454.703 479.695 453.284C478.192 451.866 476.153 451.068 474.027 451.066H219.836Z" fill="#CCCCCC"/>
<path d="M254.183 486.247C251.099 486.247 248.083 485.384 245.518 483.767C242.953 482.151 240.954 479.853 239.773 477.164C238.593 474.475 238.284 471.517 238.886 468.662C239.487 465.808 240.973 463.186 243.154 461.128C245.335 459.07 248.114 457.669 251.139 457.101C254.165 456.533 257.301 456.825 260.151 457.938C263.001 459.052 265.437 460.938 267.151 463.358C268.864 465.777 269.779 468.622 269.779 471.533C269.779 473.465 269.376 475.378 268.592 477.163C267.808 478.949 266.66 480.571 265.211 481.937C263.763 483.303 262.044 484.387 260.152 485.127C258.26 485.866 256.231 486.247 254.183 486.247Z" fill="#E6E6E6"/>
<path d="M450.996 483.547H284.527C283.526 483.547 282.567 483.172 281.859 482.504C281.151 481.837 280.754 480.931 280.754 479.987C280.754 479.043 281.151 478.138 281.859 477.47C282.567 476.803 283.526 476.428 284.527 476.428H450.996C451.997 476.428 452.957 476.803 453.664 477.47C454.372 478.138 454.769 479.043 454.769 479.987C454.769 480.931 454.372 481.837 453.664 482.504C452.957 483.172 451.997 483.547 450.996 483.547Z" fill="#E6E6E6"/>
<path d="M396.765 468.42H284.525C283.524 468.42 282.565 468.045 281.857 467.377C281.149 466.71 280.752 465.804 280.752 464.86C280.752 463.916 281.149 463.011 281.857 462.343C282.565 461.676 283.524 461.301 284.525 461.301H396.765C397.765 461.301 398.725 461.676 399.433 462.343C400.14 463.011 400.538 463.916 400.538 464.86C400.538 465.804 400.14 466.71 399.433 467.377C398.725 468.045 397.765 468.42 396.765 468.42Z" fill="#E6E6E6"/>
<path d="M473.213 374.657H219.021C216.646 374.655 214.368 373.763 212.688 372.178C211.008 370.594 210.063 368.445 210.061 366.204V340.399C210.063 338.158 211.008 336.009 212.688 334.424C214.368 332.839 216.646 331.948 219.021 331.945H473.213C475.589 331.948 477.866 332.839 479.546 334.424C481.226 336.009 482.171 338.158 482.174 340.399V366.204C482.171 368.446 481.226 370.594 479.546 372.179C477.866 373.764 475.589 374.656 473.213 374.658V374.657ZM219.021 332.833C216.896 332.835 214.858 333.633 213.355 335.051C211.852 336.469 211.006 338.391 211.004 340.397V366.202C211.006 368.207 211.852 370.13 213.355 371.548C214.858 372.966 216.896 373.763 219.021 373.766H473.213C475.339 373.763 477.376 372.966 478.879 371.548C480.382 370.13 481.228 368.207 481.23 366.202V340.399C481.228 338.393 480.383 336.47 478.88 335.052C477.377 333.633 475.339 332.835 473.213 332.833H219.021Z" fill="#33A0DF"/>
<path d="M253.58 368.015C250.495 368.016 247.48 367.153 244.915 365.536C242.35 363.919 240.35 361.621 239.17 358.933C237.989 356.244 237.68 353.285 238.282 350.431C238.884 347.577 240.369 344.955 242.55 342.897C244.731 340.839 247.51 339.438 250.536 338.87C253.561 338.302 256.697 338.593 259.547 339.707C262.397 340.821 264.833 342.707 266.547 345.126C268.261 347.546 269.176 350.391 269.176 353.301C269.176 355.233 268.772 357.147 267.989 358.932C267.205 360.717 266.056 362.339 264.608 363.706C263.16 365.072 261.44 366.156 259.548 366.895C257.656 367.635 255.628 368.015 253.58 368.015Z" fill="#33A0DF"/>
<path d="M450.182 365.316H283.713C282.712 365.316 281.752 364.94 281.045 364.273C280.337 363.605 279.939 362.7 279.939 361.756C279.939 360.812 280.337 359.906 281.045 359.239C281.752 358.571 282.712 358.196 283.713 358.196H450.182C451.182 358.196 452.142 358.571 452.85 359.239C453.557 359.906 453.955 360.812 453.955 361.756C453.955 362.7 453.557 363.605 452.85 364.273C452.142 364.94 451.182 365.316 450.182 365.316Z" fill="#33A0DF"/>
<path d="M395.948 350.189H283.709C282.708 350.189 281.748 349.814 281.041 349.146C280.333 348.478 279.936 347.573 279.936 346.629C279.936 345.685 280.333 344.779 281.041 344.112C281.748 343.444 282.708 343.069 283.709 343.069H395.948C396.949 343.069 397.909 343.444 398.616 344.112C399.324 344.779 399.721 345.685 399.721 346.629C399.721 347.573 399.324 348.478 398.616 349.146C397.909 349.814 396.949 350.189 395.948 350.189Z" fill="#33A0DF"/>
<path d="M251.416 361.756C250.866 361.757 250.33 361.589 249.89 361.278L249.862 361.259L244.125 357.116C243.853 356.926 243.624 356.687 243.451 356.412C243.277 356.138 243.164 355.833 243.117 355.517C243.069 355.2 243.09 354.878 243.176 354.569C243.262 354.26 243.412 353.97 243.619 353.717C243.825 353.463 244.082 353.251 244.376 353.092C244.67 352.933 244.995 352.831 245.331 352.792C245.667 352.753 246.008 352.778 246.334 352.864C246.66 352.951 246.965 353.098 247.23 353.296L250.949 355.986L259.735 345.172C259.938 344.921 260.192 344.711 260.482 344.552C260.772 344.394 261.092 344.291 261.424 344.25C261.757 344.209 262.094 344.23 262.417 344.311C262.741 344.393 263.044 344.535 263.31 344.727L263.256 344.802L263.311 344.727C263.848 345.116 264.198 345.689 264.287 346.322C264.375 346.954 264.194 347.594 263.782 348.1L253.448 360.815C253.209 361.107 252.901 361.343 252.549 361.506C252.197 361.668 251.811 361.751 251.419 361.75L251.416 361.756Z" fill="white"/>
<path d="M351.63 231.368H350.452C349.398 231.367 348.387 230.971 347.641 230.267C346.895 229.564 346.476 228.61 346.474 227.615V226.683C346.396 224.686 346.871 222.705 347.853 220.934C348.962 219.185 350.256 217.546 351.715 216.042C352.684 215.123 353.563 214.122 354.341 213.053C354.899 212.224 355.187 211.259 355.169 210.276C355.169 207.959 353.569 206.833 350.278 206.833C348.451 206.852 346.636 207.109 344.883 207.596C344.208 207.778 343.496 207.81 342.805 207.689C342.114 207.567 341.463 207.296 340.902 206.897C340.341 206.497 339.886 205.98 339.573 205.387C339.26 204.793 339.097 204.139 339.098 203.476V201.588C339.094 200.776 339.34 199.979 339.806 199.296C340.273 198.613 340.939 198.071 341.725 197.738C347.883 195.37 354.769 195.312 360.971 197.577C363.531 198.539 365.766 200.137 367.44 202.201C368.973 204.153 369.788 206.523 369.761 208.952C369.823 211.375 369.034 213.749 367.517 215.704C365.667 217.924 363.563 219.946 361.245 221.733C359.826 222.845 358.482 224.039 357.22 225.308C356.406 226.136 355.83 227.147 355.548 228.244C355.391 229.118 354.911 229.91 354.193 230.481C353.475 231.051 352.566 231.364 351.627 231.362L351.63 231.368Z" fill="#33A0DF"/>
<path d="M350.98 249.018H350.823C348.867 249.018 346.992 248.285 345.609 246.981C344.226 245.676 343.449 243.907 343.449 242.062C343.449 240.217 344.226 238.448 345.609 237.143C346.992 235.838 348.867 235.105 350.823 235.105H350.978C352.933 235.105 354.809 235.838 356.192 237.143C357.575 238.448 358.351 240.217 358.351 242.062C358.351 243.907 357.575 245.676 356.192 246.981C354.809 248.285 352.933 249.018 350.978 249.018H350.98Z" fill="#33A0DF"/>
</g>
<defs>
<filter id="filter0_d_721_308" x="-335" y="33.2744" width="1115.81" height="574.454" filterUnits="userSpaceOnUse" color-interpolation-filters="sRGB">
<feFlood flood-opacity="0" result="BackgroundImageFix"/>
<feColorMatrix in="SourceAlpha" type="matrix" values="0 0 0 0 0 0 0 0 0 0 0 0 0 0 0 0 0 0 127 0" result="hardAlpha"/>
<feOffset dy="4"/>
<feGaussianBlur stdDeviation="17.5"/>
<feComposite in2="hardAlpha" operator="out"/>
<feColorMatrix type="matrix" values="0 0 0 0 0 0 0 0 0 0 0 0 0 0 0 0 0 0 0.25 0"/>
<feBlend mode="normal" in2="BackgroundImageFix" result="effect1_dropShadow_721_308"/>
<feBlend mode="normal" in="SourceGraphic" in2="effect1_dropShadow_721_308" result="shape"/>
</filter>
<filter id="filter1_d_721_308" x="-384" y="0.623047" width="1245.81" height="704.454" filterUnits="userSpaceOnUse" color-interpolation-filters="sRGB">
<feFlood flood-opacity="0" result="BackgroundImageFix"/>
<feColorMatrix in="SourceAlpha" type="matrix" values="0 0 0 0 0 0 0 0 0 0 0 0 0 0 0 0 0 0 127 0" result="hardAlpha"/>
<feOffset dy="4"/>
<feGaussianBlur stdDeviation="50"/>
<feComposite in2="hardAlpha" operator="out"/>
<feColorMatrix type="matrix" values="0 0 0 0 0 0 0 0 0 0 0 0 0 0 0 0 0 0 0.25 0"/>
<feBlend mode="normal" in2="BackgroundImageFix" result="effect1_dropShadow_721_308"/>
<feBlend mode="normal" in="SourceGraphic" in2="effect1_dropShadow_721_308" result="shape"/>
</filter>
<filter id="filter2_d_721_308" x="59" y="157" width="604.867" height="410.551" filterUnits="userSpaceOnUse" color-interpolation-filters="sRGB">
<feFlood flood-opacity="0" result="BackgroundImageFix"/>
<feColorMatrix in="SourceAlpha" type="matrix" values="0 0 0 0 0 0 0 0 0 0 0 0 0 0 0 0 0 0 127 0" result="hardAlpha"/>
<feOffset dx="7" dy="7"/>
<feGaussianBlur stdDeviation="15.5"/>
<feComposite in2="hardAlpha" operator="out"/>
<feColorMatrix type="matrix" values="0 0 0 0 0.0862745 0 0 0 0 0.25098 0 0 0 0 0.439216 0 0 0 1 0"/>
<feBlend mode="normal" in2="BackgroundImageFix" result="effect1_dropShadow_721_308"/>
<feBlend mode="normal" in="SourceGraphic" in2="effect1_dropShadow_721_308" result="shape"/>
</filter>
<linearGradient id="paint0_linear_721_308" x1="-140.765" y1="426.104" x2="745.828" y2="426.104" gradientUnits="userSpaceOnUse">
<stop stop-color="#40A4FF"/>
<stop offset="1" stop-color="#266299"/>
</linearGradient>
</defs>
</svg>
