<svg width="752" height="556" viewBox="0 0 752 556" fill="none" xmlns="http://www.w3.org/2000/svg">
<g clip-path="url(#clip0_71_120)">
<path d="M533.741 407.697H128.805C125.197 407.693 121.738 406.258 119.187 403.707C116.636 401.155 115.2 397.696 115.196 394.088V64.3653C115.2 60.7573 116.636 57.2982 119.187 54.7469C121.738 52.1957 125.197 50.7605 128.805 50.7563H533.741C537.349 50.7605 540.808 52.1957 543.359 54.7469C545.911 57.2982 547.346 60.7573 547.35 64.3653V394.088C547.346 397.696 545.911 401.155 543.359 403.707C540.808 406.258 537.349 407.693 533.741 407.697Z" fill="#E6E6E6"/>
<path d="M137.987 60.4429C134.511 60.4469 131.179 61.8294 128.722 64.287C126.264 66.7446 124.882 70.0767 124.878 73.5523V384.909C124.882 388.384 126.264 391.716 128.722 394.174C131.18 396.631 134.511 398.014 137.987 398.018H415.149C447.633 397.981 478.775 385.061 501.744 362.091C524.713 339.122 537.634 307.98 537.67 275.497V73.5523C537.667 70.0767 536.284 66.7446 533.827 64.287C531.369 61.8294 528.037 60.4469 524.562 60.4429L137.987 60.4429Z" fill="white"/>
<path d="M459.9 200.474H386.475C384.944 200.472 383.476 199.863 382.393 198.78C381.31 197.697 380.701 196.229 380.699 194.698V158.153C380.701 156.622 381.31 155.153 382.393 154.071C383.476 152.988 384.944 152.379 386.475 152.377H459.9C461.431 152.379 462.899 152.988 463.982 154.071C465.065 155.153 465.674 156.622 465.676 158.153C470.219 171.085 470.864 183.374 465.676 194.698C465.674 196.229 465.065 197.697 463.982 198.78C462.899 199.863 461.431 200.472 459.9 200.474Z" fill="#E6E6E6"/>
<path d="M451.202 196.942H388.82C387.519 196.941 386.272 196.423 385.352 195.503C384.432 194.583 383.915 193.336 383.913 192.035V160.986C383.915 159.685 384.432 158.438 385.352 157.518C386.272 156.598 387.519 156.081 388.82 156.079H451.202C452.503 156.081 453.75 156.598 454.67 157.518C455.59 158.438 456.108 159.685 456.109 160.986C460.319 172.044 460.997 182.507 456.109 192.035C456.108 193.336 455.59 194.583 454.67 195.503C453.75 196.423 452.503 196.941 451.202 196.942Z" fill="white"/>
<path d="M447.837 219.617H398.375C396.92 219.619 395.524 219.043 394.494 218.016C393.463 216.989 392.883 215.594 392.88 214.139C392.877 212.684 393.452 211.288 394.479 210.257C395.506 209.226 396.9 208.645 398.355 208.642H447.837C449.291 208.644 450.684 209.224 451.711 210.253C452.738 211.281 453.314 212.676 453.314 214.129C453.314 215.583 452.738 216.977 451.711 218.006C450.684 219.035 449.291 219.614 447.837 219.617Z" fill="#E6E6E6"/>
<path d="M414.581 164.462C414.012 164.464 413.467 164.692 413.065 165.094C412.663 165.497 412.437 166.042 412.436 166.611V189.872C412.435 190.247 412.534 190.617 412.721 190.942C412.909 191.268 413.178 191.538 413.503 191.727C413.828 191.916 414.196 192.016 414.572 192.017C414.948 192.019 415.317 191.922 415.643 191.736L436.174 180.029C436.504 179.841 436.779 179.569 436.969 179.241C437.159 178.912 437.259 178.539 437.258 178.159C437.257 177.78 437.155 177.407 436.963 177.08C436.771 176.752 436.495 176.482 436.164 176.296L415.634 164.741C415.313 164.559 414.95 164.463 414.581 164.462Z" fill="#E6E6E6"/>
<path d="M714.114 511.364C712.982 509.924 711.444 508.857 709.699 508.299C707.954 507.741 706.082 507.719 704.325 508.235L703.94 508.349L700.493 521.808C699.977 519.802 698.872 515.274 698.175 510.842L698.115 510.475L697.773 510.626C694.169 512.218 690.781 514.261 687.689 516.703C682.212 521.097 677.757 526.631 674.634 532.92C671.511 539.209 669.795 546.103 669.606 553.122L669.6 553.38L669.594 553.542L670.05 553.38L679.846 549.879C684.182 550.261 688.55 549.67 692.629 548.149C696.708 546.628 700.396 544.215 703.424 541.087C707.382 536.913 710.096 531.544 712.721 526.349C713.49 524.835 714.276 523.274 715.081 521.772C715.979 520.139 716.367 518.275 716.194 516.42C716.022 514.565 715.297 512.804 714.114 511.364Z" fill="#F2F2F2"/>
<path d="M463.97 168.146C464.167 169.165 464.584 170.128 465.194 170.968C465.803 171.808 466.589 172.504 467.496 173.008C468.403 173.511 469.41 173.809 470.445 173.882C471.48 173.954 472.518 173.798 473.487 173.426L502.762 207.482L506.468 194.91L477.445 163.752C476.711 162.167 475.422 160.905 473.82 160.207C472.219 159.509 470.417 159.422 468.756 159.964C467.095 160.505 465.69 161.637 464.808 163.145C463.926 164.654 463.628 166.433 463.97 168.146Z" fill="#FFB8B8"/>
<path d="M581.955 545.239H572.267L567.658 507.87H581.957L581.955 545.239Z" fill="#FFB6B6"/>
<path d="M581.696 542.075L571.352 537.867L571.056 537.746L565.345 542.075C562.12 542.075 559.028 543.356 556.747 545.637C554.467 547.917 553.186 551.009 553.186 554.234V554.629H584.423V542.075H581.696Z" fill="#164070"/>
<path d="M651.067 545.239H641.379L636.77 507.87H651.068L651.067 545.239Z" fill="#FFB6B6"/>
<path d="M650.808 542.075L640.464 537.867L640.168 537.746L634.457 542.075C631.232 542.075 628.14 543.356 625.86 545.637C623.58 547.917 622.298 551.009 622.298 554.234V554.629H653.535V542.075H650.808Z" fill="#164070"/>
<path d="M628.202 322.089C628.202 322.089 640.354 334.731 640.354 345.119C640.354 355.506 637.316 369.769 640.354 372.89C643.392 376.012 647.189 379.809 642.632 384.366C638.075 388.923 635.797 391.201 638.835 394.239C641.873 397.277 640.354 450.44 640.354 450.44L656.303 521.831H636.209L610.734 450.44L603.899 391.201L581.794 448.162L584.234 522.443L563.228 521.831L554.533 442.845C554.533 442.845 567.444 367.711 565.166 365.786C562.887 363.86 565.166 359.973 565.166 359.973L571.242 331.203L628.202 322.089Z" fill="#164070"/>
<path d="M604.41 232.457C604.41 232.457 608.542 216.175 589.507 211.507C570.471 206.839 516.057 200.842 516.057 200.842L488.558 171.662L479.24 185.194L510.067 223.502L583.11 238.505L604.41 232.457Z" fill="#3F3D56"/>
<path d="M483.769 184.196C484.623 183.09 485.291 181.852 485.747 180.531L489.691 170.84L488.667 170.797C487.25 170.531 485.794 170.567 484.392 170.903C482.99 171.239 481.675 171.867 480.533 172.746C479.391 173.626 478.448 174.737 477.765 176.006C477.083 177.276 476.676 178.675 476.572 180.113C476.443 181.357 476.666 182.612 477.216 183.734C477.496 184.291 477.905 184.773 478.407 185.141C478.91 185.51 479.492 185.754 480.107 185.854C480.806 185.892 481.503 185.76 482.14 185.472C482.777 185.183 483.336 184.746 483.769 184.196Z" fill="#E6E6E6"/>
<path d="M567.363 335.083L565.085 351.599C565.085 351.599 569.642 356.493 571.92 355.881C574.199 355.27 582.553 351.709 582.553 351.709C582.553 351.709 592.426 357.105 597.742 357.716C603.059 358.328 631.159 354.658 631.919 352.823C632.678 350.988 641.505 343.804 641.505 343.804L637.994 322.849L567.363 335.083Z" fill="#E6E6E6"/>
<path d="M641.359 277.303C641.359 277.303 639.43 293.229 640.949 294.695C642.468 296.153 639.43 305.381 636.392 311.457C633.354 317.532 638.671 318.292 638.671 322.849C638.671 327.406 640.949 344.114 640.949 344.114C640.949 344.114 617.405 345.633 613.608 341.836C609.811 338.038 603.735 341.076 595.381 349.43C587.026 357.784 568.883 350.949 565.085 347.152C561.288 343.354 568.039 329.684 570.318 327.033C572.596 324.383 568.123 327.451 565.845 319.051C563.566 310.652 568.039 311.457 571.837 307.659C575.634 303.862 571.837 297.027 568.799 290.191C565.761 283.356 568.039 232.471 568.039 220.32C568.039 208.168 584.748 206.649 584.748 206.649L591.363 198.333L596.224 192.219L605.747 191.84L605.998 191.832L615.21 191.46L619.684 196.67L629.557 208.168L640.949 210.447C650.063 213.485 647.784 232.471 647.784 232.471L641.359 277.303Z" fill="#3F3D56"/>
<path d="M605.277 188.545C616.059 188.545 624.8 179.805 624.8 169.023C624.8 158.241 616.059 149.5 605.277 149.5C594.495 149.5 585.755 158.241 585.755 169.023C585.755 179.805 594.495 188.545 605.277 188.545Z" fill="#FFB6B6"/>
<path d="M627.913 162.455C622.543 159.162 623.232 150.552 618.058 147.545C615.486 146.063 612.595 145.224 609.629 145.099C606.664 144.975 603.712 145.568 601.025 146.83C597.381 145.271 593.016 146.515 590.1 149.33C587.185 152.146 585.607 156.299 585.142 160.475C584.806 164.672 585.107 168.895 586.036 173.001C586.325 171.351 586.615 169.702 586.904 168.052L602.295 164.688C600.932 165.912 599.57 167.136 598.207 168.36C605.177 169.947 612.491 168.803 618.644 165.164C625.344 168.168 624.129 174.913 618.248 183.865C620.527 187.663 634.031 166.208 627.913 162.455Z" fill="#164070"/>
<path d="M619.683 196.67C619.639 196.705 619.594 196.738 619.546 196.769C617.937 197.728 616.096 198.227 614.222 198.212C611.771 198.416 609.336 197.653 607.44 196.085C606.445 195.143 602.489 197.133 599.891 198.235C597.167 199.364 594.112 199.399 591.362 198.333L596.223 192.22L604.234 190.443H606.234L615.21 191.46L619.683 196.67Z" fill="#E6E6E6"/>
<path d="M750.766 555.561L479.016 555.868C478.86 555.869 478.705 555.839 478.56 555.78C478.415 555.721 478.284 555.634 478.173 555.524C478.061 555.414 477.973 555.283 477.912 555.139C477.852 554.995 477.82 554.84 477.819 554.684C477.819 554.528 477.849 554.372 477.908 554.228C477.967 554.083 478.054 553.951 478.164 553.84C478.274 553.729 478.405 553.641 478.549 553.58C478.693 553.519 478.847 553.488 479.004 553.487H479.016L750.766 553.18C751.081 553.181 751.382 553.307 751.604 553.531C751.826 553.754 751.951 554.056 751.951 554.37C751.951 554.685 751.826 554.987 751.604 555.21C751.382 555.433 751.081 555.559 750.766 555.561Z" fill="#CACACA"/>
<path d="M425.383 155.694H423.383V12.6509H502.04V14.6509H425.383V155.694Z" fill="#3F3D56"/>
<path d="M563.213 0H510.213C506.765 0 503.458 1.36964 501.021 3.80762C498.583 6.24559 497.213 9.55219 497.213 13C497.213 16.4478 498.583 19.7544 501.021 22.1924C503.458 24.6304 506.765 26 510.213 26H563.213C566.661 26 569.967 24.6304 572.405 22.1924C574.843 19.7544 576.213 16.4478 576.213 13C576.213 9.55219 574.843 6.24559 572.405 3.80762C569.967 1.36964 566.661 0 563.213 0Z" fill="#33A0DF"/>
<path d="M423.222 168.78C429.82 168.78 435.168 163.432 435.168 156.835C435.168 150.237 429.82 144.889 423.222 144.889C416.625 144.889 411.276 150.237 411.276 156.835C411.276 163.432 416.625 168.78 423.222 168.78Z" fill="#33A0DF"/>
<path d="M279.272 201.722L331.678 189.595L346.721 186.114C348.603 185.679 347.821 182.782 345.938 183.217L293.532 195.344L278.49 198.826C276.608 199.261 277.39 202.158 279.272 201.722Z" fill="#F2F2F2"/>
<path d="M333.388 170.14L361.443 183.045C362.4 183.376 363.297 183.862 364.098 184.482C364.872 185.241 364.308 185.97 363.676 186.631C361.788 188.394 359.794 190.04 357.705 191.56L345.753 201.277C344.252 202.497 346.369 204.626 347.856 203.417L358.266 194.954L363.471 190.722C364.946 189.523 366.741 188.3 367.333 186.39C368.578 182.377 363.665 180.782 360.934 179.526L348.717 173.906L334.916 167.557C333.176 166.757 331.635 169.334 333.388 170.14Z" fill="#F2F2F2"/>
<path d="M720.541 268.383C715.543 264.995 709.471 263.736 703.536 263.309C696.79 262.941 690.029 262.949 683.284 263.332C676.278 263.61 669.285 264.117 662.307 264.853C655.339 265.591 648.4 266.557 641.491 267.752C635.304 268.715 629.183 270.055 623.16 271.765C617.458 273.342 612.088 275.936 607.308 279.42C603.111 282.576 599.884 286.846 597.993 291.744C596.136 296.339 595.82 301.411 597.093 306.2C597.771 308.527 598.932 310.684 600.501 312.531C602.313 314.557 604.461 316.258 606.849 317.557C611.807 320.388 617.425 322.09 621.909 325.715C623.092 326.663 624.169 327.735 625.124 328.912C625.773 329.823 626.669 330.528 627.707 330.944C628.69 331.287 629.753 331.332 630.762 331.072C631.771 330.813 632.68 330.26 633.376 329.484C634.274 328.255 635.023 326.924 635.606 325.518L637.972 320.954C638.13 320.555 638.328 320.172 638.563 319.813C638.741 319.601 638.424 319.817 638.484 319.762C638.517 319.731 638.586 319.732 638.624 319.708C638.82 319.61 639.024 319.532 639.235 319.473C641.423 318.639 643.621 317.831 645.829 317.049C653.978 314.144 662.226 311.467 670.603 309.299C674.914 308.143 679.287 307.228 683.7 306.559C689.415 305.745 695.218 305.84 700.959 305.283C707.141 304.684 713.52 303.433 718.821 300.029C723.205 297.365 726.581 293.323 728.423 288.536C729.221 286.255 729.495 283.822 729.224 281.42C728.535 275.986 724.985 271.396 720.541 268.383Z" fill="#E6E6E6"/>
<path d="M710.312 271.437C705.795 268.375 700.308 267.237 694.945 266.851C688.849 266.519 682.739 266.526 676.644 266.872C670.312 267.123 663.994 267.581 657.688 268.247C651.391 268.913 645.12 269.787 638.876 270.866C633.286 271.737 627.754 272.948 622.311 274.492C617.159 275.918 612.306 278.262 607.986 281.41C604.194 284.262 601.277 288.121 599.568 292.548C597.891 296.699 597.605 301.283 598.755 305.611C599.368 307.713 600.418 309.663 601.835 311.332C603.473 313.163 605.413 314.7 607.572 315.874C612.052 318.432 617.128 319.97 621.181 323.246C622.25 324.103 623.224 325.071 624.087 326.135C624.673 326.958 625.483 327.595 626.421 327.971C627.309 328.281 628.27 328.322 629.181 328.087C630.093 327.852 630.915 327.353 631.543 326.652C632.355 325.542 633.031 324.338 633.559 323.068L635.697 318.943C635.84 318.583 636.019 318.237 636.231 317.912C636.391 317.721 636.105 317.916 636.16 317.866C636.19 317.838 636.252 317.839 636.286 317.817C636.463 317.729 636.648 317.658 636.838 317.605C638.815 316.852 640.802 316.121 642.797 315.414C650.161 312.79 657.614 310.371 665.185 308.411C669.08 307.366 673.032 306.54 677.019 305.935C682.185 305.2 687.428 305.285 692.617 304.782C698.203 304.241 703.967 303.11 708.758 300.034C712.719 297.627 715.77 293.974 717.435 289.648C718.156 287.586 718.404 285.389 718.159 283.218C717.536 278.307 714.327 274.16 710.312 271.437Z" fill="white"/>
<path d="M700.852 276.967L627.251 290.541C627.04 290.582 626.824 290.58 626.614 290.536C626.405 290.493 626.205 290.408 626.028 290.287C625.851 290.167 625.7 290.012 625.583 289.833C625.465 289.653 625.385 289.453 625.345 289.242C625.306 289.031 625.308 288.815 625.352 288.605C625.397 288.396 625.482 288.197 625.603 288.02C625.724 287.844 625.879 287.693 626.059 287.576C626.239 287.459 626.44 287.379 626.651 287.34L626.66 287.339L700.261 273.764C700.472 273.725 700.688 273.728 700.897 273.773C701.106 273.817 701.304 273.903 701.48 274.024C701.656 274.145 701.807 274.3 701.923 274.48C702.039 274.659 702.119 274.86 702.158 275.07C702.197 275.28 702.194 275.496 702.149 275.705C702.105 275.914 702.019 276.113 701.898 276.289C701.777 276.465 701.622 276.615 701.442 276.732C701.263 276.848 701.062 276.928 700.852 276.967Z" fill="#E6E6E6"/>
<path d="M702.665 286.796L629.064 300.371C628.854 300.411 628.637 300.409 628.428 300.366C628.218 300.322 628.019 300.237 627.842 300.117C627.665 299.996 627.513 299.842 627.396 299.662C627.279 299.483 627.198 299.282 627.159 299.072C627.119 298.861 627.122 298.645 627.166 298.435C627.21 298.225 627.295 298.027 627.417 297.85C627.538 297.673 627.693 297.522 627.872 297.406C628.052 297.289 628.253 297.209 628.464 297.17L628.473 297.168L702.074 283.593C702.285 283.555 702.501 283.558 702.71 283.602C702.919 283.647 703.117 283.732 703.293 283.854C703.469 283.975 703.62 284.13 703.736 284.309C703.853 284.489 703.932 284.689 703.971 284.899C704.01 285.11 704.007 285.326 703.962 285.535C703.918 285.744 703.832 285.942 703.711 286.118C703.59 286.294 703.435 286.445 703.256 286.561C703.076 286.678 702.876 286.757 702.665 286.796Z" fill="#E6E6E6"/>
<path d="M639.454 308.619L630.877 310.201C630.453 310.277 630.016 310.183 629.661 309.938C629.307 309.693 629.064 309.317 628.986 308.894C628.908 308.47 629.001 308.032 629.245 307.677C629.488 307.322 629.863 307.078 630.286 306.998L638.863 305.416C639.288 305.339 639.725 305.433 640.08 305.678C640.435 305.923 640.678 306.299 640.756 306.723C640.834 307.147 640.741 307.584 640.497 307.94C640.253 308.295 639.878 308.539 639.454 308.619Z" fill="#E6E6E6"/>
<path d="M633.24 349.483C636.999 348.789 639.485 345.18 638.791 341.421C638.098 337.662 634.488 335.176 630.729 335.87C626.97 336.563 624.485 340.172 625.178 343.931C625.872 347.691 629.481 350.176 633.24 349.483Z" fill="#D1D3D4"/>
<path d="M252.341 198.622H189.475C186.556 198.619 183.758 197.458 181.695 195.395C179.631 193.331 178.47 190.533 178.467 187.615V146.182C178.47 143.264 179.631 140.466 181.695 138.402C183.758 136.339 186.556 135.178 189.475 135.174H252.341C255.259 135.178 258.057 136.339 260.121 138.402C262.184 140.466 263.345 143.264 263.349 146.182V187.615C263.345 190.533 262.184 193.331 260.121 195.395C258.057 197.458 255.259 198.619 252.341 198.622Z" fill="#E6E6E6"/>
<path d="M245.432 196.39H190.719C188.179 196.387 185.744 195.377 183.948 193.581C182.152 191.785 181.142 189.35 181.139 186.81V150.751C181.142 148.211 182.152 145.776 183.948 143.98C185.744 142.184 188.179 141.173 190.719 141.17H245.432C247.972 141.173 250.407 142.184 252.203 143.98C253.999 145.776 255.01 148.211 255.013 150.751V186.81C255.01 189.35 253.999 191.785 252.203 193.581C250.407 195.377 247.972 196.387 245.432 196.39Z" fill="white"/>
<path d="M261.196 235.951H180.53C180.032 235.95 179.554 235.751 179.202 235.398C178.85 235.045 178.652 234.567 178.652 234.069C178.652 233.57 178.85 233.092 179.202 232.739C179.554 232.386 180.032 232.188 180.53 232.187H261.196C261.694 232.188 262.172 232.386 262.524 232.739C262.876 233.092 263.074 233.57 263.074 234.069C263.074 234.567 262.876 235.045 262.524 235.398C262.172 235.751 261.694 235.95 261.196 235.951Z" fill="#E6E6E6"/>
<path d="M261.196 225.195H180.53C180.032 225.194 179.554 224.995 179.202 224.642C178.85 224.289 178.652 223.811 178.652 223.313C178.652 222.814 178.85 222.336 179.202 221.983C179.554 221.631 180.032 221.432 180.53 221.431H261.196C261.694 221.432 262.172 221.631 262.524 221.983C262.876 222.336 263.074 222.814 263.074 223.313C263.074 223.811 262.876 224.289 262.524 224.642C262.172 224.995 261.694 225.194 261.196 225.195Z" fill="#E6E6E6"/>
<path d="M261.195 246.706H180.53C180.03 246.706 179.552 246.508 179.199 246.155C178.846 245.802 178.647 245.323 178.647 244.824C178.647 244.325 178.846 243.846 179.199 243.493C179.552 243.14 180.03 242.942 180.53 242.942H261.195C261.695 242.942 262.173 243.14 262.526 243.493C262.879 243.846 263.078 244.325 263.078 244.824C263.078 245.323 262.879 245.802 262.526 246.155C262.173 246.508 261.695 246.706 261.195 246.706Z" fill="#E6E6E6"/>
<path d="M261.195 257.462H180.53C180.03 257.462 179.552 257.263 179.199 256.91C178.846 256.557 178.647 256.079 178.647 255.579C178.647 255.08 178.846 254.602 179.199 254.249C179.552 253.896 180.03 253.697 180.53 253.697H261.195C261.695 253.697 262.173 253.896 262.526 254.249C262.879 254.602 263.078 255.08 263.078 255.579C263.078 256.079 262.879 256.557 262.526 256.91C262.173 257.263 261.695 257.462 261.195 257.462Z" fill="#E6E6E6"/>
<path d="M261.195 268.217H180.53C180.03 268.217 179.552 268.019 179.199 267.666C178.846 267.313 178.647 266.834 178.647 266.335C178.647 265.836 178.846 265.357 179.199 265.004C179.552 264.651 180.03 264.453 180.53 264.453H261.195C261.695 264.453 262.173 264.651 262.526 265.004C262.879 265.357 263.078 265.836 263.078 266.335C263.078 266.834 262.879 267.313 262.526 267.666C262.173 268.019 261.695 268.217 261.195 268.217Z" fill="#E6E6E6"/>
<path d="M261.196 278.972H180.53C180.032 278.971 179.554 278.772 179.202 278.42C178.85 278.067 178.652 277.589 178.652 277.09C178.652 276.592 178.85 276.114 179.202 275.761C179.554 275.408 180.032 275.209 180.53 275.208H261.196C261.694 275.209 262.172 275.408 262.524 275.761C262.876 276.114 263.074 276.592 263.074 277.09C263.074 277.589 262.876 278.067 262.524 278.42C262.172 278.772 261.694 278.971 261.196 278.972Z" fill="#E6E6E6"/>
<path d="M216.83 254.306H218.83V331.349H74.1729V329.349H216.83V254.306Z" fill="#3F3D56"/>
<path d="M13 344H66C69.4478 344 72.7544 342.63 75.1924 340.192C77.6304 337.754 79 334.448 79 331C79 327.552 77.6304 324.246 75.1924 321.808C72.7544 319.37 69.4478 318 66 318H13C9.55219 318 6.24559 319.37 3.80762 321.808C1.36964 324.246 0 327.552 0 331C0 334.448 1.36964 337.754 3.80762 340.192C6.24559 342.63 9.55219 344 13 344Z" fill="#33A0DF"/>
<path d="M219.222 260.112C225.82 260.112 231.168 254.763 231.168 248.166C231.168 241.568 225.82 236.22 219.222 236.22C212.625 236.22 207.276 241.568 207.276 248.166C207.276 254.763 212.625 260.112 219.222 260.112Z" fill="#33A0DF"/>
<path d="M280.967 251.485C298.506 255.213 294.045 255.94 311.583 259.668L326.686 262.878C328.575 263.279 329.092 260.324 327.202 259.922C309.664 256.194 314.125 255.467 296.587 251.739L281.484 248.53C279.595 248.128 279.077 251.084 280.967 251.485Z" fill="#F2F2F2"/>
<path d="M321.364 242.763L341.324 266.325C342.052 267.03 342.659 267.85 343.122 268.751C343.503 269.766 342.683 270.188 341.831 270.519C339.375 271.318 336.871 271.966 334.335 272.459L319.394 276.207C317.519 276.678 318.536 279.502 320.394 279.036L333.408 275.772L339.914 274.139C341.758 273.677 343.902 273.328 345.247 271.848C348.072 268.739 344.295 265.214 342.353 262.921L333.66 252.66L323.841 241.069C322.603 239.608 320.117 241.291 321.364 242.763Z" fill="#F2F2F2"/>
<path d="M384.652 345.475C399.995 345.475 412.432 333.037 412.432 317.695C412.432 302.352 399.995 289.915 384.652 289.915C369.31 289.915 356.872 302.352 356.872 317.695C356.872 333.037 369.31 345.475 384.652 345.475Z" fill="#E6E6E6"/>
<path d="M381.945 341.933C393.608 341.933 403.064 332.478 403.064 320.814C403.064 309.15 393.608 299.694 381.945 299.694C370.281 299.694 360.825 309.15 360.825 320.814C360.825 332.478 370.281 341.933 381.945 341.933Z" fill="white"/>
<path d="M378.156 335.272C377.676 335.272 377.203 335.161 376.774 334.946C376.345 334.731 375.972 334.42 375.684 334.036L368.105 323.931C367.862 323.606 367.684 323.237 367.583 322.844C367.482 322.451 367.46 322.042 367.517 321.64C367.574 321.238 367.71 320.852 367.917 320.502C368.123 320.153 368.397 319.848 368.721 319.604C369.046 319.361 369.415 319.183 369.808 319.083C370.201 318.982 370.61 318.959 371.012 319.016C371.414 319.074 371.8 319.209 372.15 319.416C372.499 319.622 372.804 319.896 373.048 320.22L373.049 320.223L378.008 326.833L390.743 307.731C390.967 307.393 391.257 307.103 391.594 306.876C391.931 306.65 392.31 306.492 392.708 306.412C393.106 306.333 393.516 306.332 393.915 306.411C394.313 306.489 394.692 306.646 395.03 306.871C395.368 307.096 395.658 307.386 395.884 307.724C396.11 308.061 396.267 308.44 396.347 308.838C396.426 309.237 396.426 309.647 396.347 310.045C396.268 310.443 396.111 310.822 395.885 311.16L380.727 333.896C380.453 334.307 380.084 334.647 379.652 334.886C379.219 335.125 378.736 335.257 378.242 335.271C378.213 335.272 378.185 335.272 378.156 335.272Z" fill="#E6E6E6"/>
<path d="M644.051 346.313C644.945 345.787 645.713 345.071 646.301 344.216C646.889 343.361 647.283 342.388 647.454 341.364C647.625 340.341 647.569 339.292 647.291 338.293C647.013 337.293 646.519 336.366 645.844 335.578L668.15 296.6L655.062 297.311L635.404 335.083C634.155 336.304 633.398 337.942 633.275 339.684C633.153 341.427 633.674 343.154 634.74 344.538C635.805 345.922 637.342 346.868 639.058 347.195C640.774 347.522 642.55 347.208 644.051 346.313Z" fill="#FFB8B8"/>
<path d="M618.927 209.687C618.927 209.687 642.551 202.093 648.627 220.32C654.703 238.547 675.128 287.913 675.128 287.913L653.184 332.722L643.311 322.089L653.862 290.951L623.484 245.383L618.927 209.687Z" fill="#3F3D56"/>
<path d="M653.937 328.146C653.226 326.943 652.324 325.863 651.266 324.95L643.728 317.695L643.309 318.63C642.536 319.847 642.029 321.213 641.822 322.639C641.614 324.066 641.71 325.52 642.103 326.907C642.497 328.293 643.179 329.581 644.105 330.686C645.031 331.791 646.18 332.687 647.477 333.317C648.584 333.898 649.832 334.155 651.079 334.061C651.7 334.007 652.299 333.806 652.827 333.476C653.356 333.146 653.799 332.695 654.12 332.161C654.413 331.526 654.55 330.83 654.518 330.131C654.486 329.433 654.287 328.752 653.937 328.146Z" fill="#E6E6E6"/>
<path d="M384.412 355.068H382.412V432.111H450.069V430.111H384.412V355.068Z" fill="#3F3D56"/>
<path d="M524.242 431.762C524.239 428.315 522.868 425.011 520.431 422.573C517.994 420.136 514.689 418.766 511.242 418.762H458.242C454.794 418.762 451.488 420.132 449.05 422.57C446.612 425.008 445.242 428.314 445.242 431.762C445.242 435.21 446.612 438.517 449.05 440.955C451.488 443.393 454.794 444.762 458.242 444.762H511.242C514.689 444.759 517.994 443.388 520.431 440.951C522.868 438.514 524.239 435.209 524.242 431.762Z" fill="#33A0DF"/>
<path d="M382.019 360.874C388.617 360.874 393.965 355.525 393.965 348.928C393.965 342.33 388.617 336.982 382.019 336.982C375.422 336.982 370.073 342.33 370.073 348.928C370.073 355.525 375.422 360.874 382.019 360.874Z" fill="#33A0DF"/>
</g>
<defs>
<clipPath id="clip0_71_120">
<rect width="751.951" height="555.868" fill="white"/>
</clipPath>
</defs>
</svg>
