<svg width="20" height="20" viewBox="0 0 20 20" fill="none" xmlns="http://www.w3.org/2000/svg">
<path d="M0.419712 9.11719L7.56257 2.86719C7.83936 2.62109 8.20543 2.5 8.5715 2.5C8.93757 2.5 9.30275 2.62207 9.58132 2.86621C10.1394 3.35449 10.1394 4.14551 9.58132 4.63379L4.87507 8.75H18.5715C19.3603 8.75 20 9.30859 20 10C20 10.6914 19.3603 11.25 18.5715 11.25H4.87507L9.58043 15.3672C10.1385 15.8555 10.1385 16.6465 9.58043 17.1348C9.02239 17.623 8.11837 17.623 7.56034 17.1348L0.41748 10.8848C-0.138323 10.3945 -0.138323 9.60547 0.419712 9.11719Z" fill="white"/>
</svg>
