<svg width="743" height="498" viewBox="0 0 743 498" fill="none" xmlns="http://www.w3.org/2000/svg">
<g clip-path="url(#clip0_303_345)">
<path d="M625.671 90.5021C625.668 76.886 622.266 63.5372 615.84 51.9378C609.415 40.3384 600.219 30.9423 589.274 24.7928C578.328 18.6433 566.061 15.9809 553.834 17.1015C541.607 18.222 529.9 23.0815 520.011 31.1404C510.122 39.1993 502.439 50.1422 497.816 62.7542C493.192 75.3662 491.808 89.1537 493.818 102.586C495.827 116.018 501.152 128.569 509.2 138.846C517.249 149.122 527.706 156.722 539.411 160.801L541.632 302.573L643.08 191.439C643.08 191.439 603.523 174.44 595.945 151.916C605.088 145.204 612.588 136.081 617.776 125.364C622.964 114.646 625.677 102.668 625.671 90.5021Z" fill="#ED9DA0"/>
<path d="M595.648 151.959C595.648 151.959 618.295 143.008 629.904 116.864C640.568 92.847 641.737 51.9436 611.459 42.008C611.459 42.008 628.903 25.2928 596.742 15.1046L601.02 19.4854C601.02 19.4854 597.245 11.9185 578.603 16.3931C578.603 16.3931 509.717 7.48821 497.49 32.6609C497.49 32.6609 460.519 41.0699 480.207 72.284C480.207 72.284 481.229 78.3584 488.25 78.2439L484.741 73.1488L495.438 78.2439C495.438 78.2439 510.315 51.9436 524.357 66.4858C524.357 66.4858 551.213 65.2314 564.058 62.6204C564.058 62.6204 561.479 100.908 586.132 108.364C610.785 115.821 595.647 151.954 595.647 151.954L595.648 151.959Z" fill="#090814"/>
<path d="M367.906 399.377L489.222 479.696L499.31 427.512L384.362 366.902C382.185 357.729 376.165 348.961 367.236 343.388C351.613 333.637 333.053 337.365 325.781 351.715C318.51 366.064 325.281 385.603 340.904 395.354C349.833 400.927 359.713 402.08 367.905 399.381L367.906 399.377Z" fill="#ED9DA0"/>
<path d="M357.609 395.243H382.319C384.391 395.232 386.398 394.441 388.011 392.999C389.624 391.557 390.748 389.55 391.199 387.306C391.533 385.586 391.457 383.799 390.979 382.121C390.501 380.443 389.638 378.933 388.473 377.739L313.125 300.771C311.96 299.579 310.418 298.945 308.834 299.007L284.913 299.922C283.747 299.967 282.618 300.387 281.663 301.129C280.707 301.872 279.966 302.906 279.53 304.107C279.093 305.308 278.98 306.623 279.204 307.894C279.427 309.164 279.978 310.336 280.789 311.266L351.621 392.432C352.4 393.319 353.331 394.025 354.36 394.508C355.388 394.991 356.493 395.241 357.609 395.243Z" fill="#090814"/>
<path d="M620.66 172.755C592.699 203.937 566.142 212.308 541.716 186.309L507.21 466.927L521.556 489.999L608.807 490.275L620.66 172.755Z" fill="#33A0DF"/>
<path d="M625.25 169.934L639.84 183.243L684.134 211.301C693.586 215.199 702.108 221.449 709.046 229.571C715.983 237.694 721.151 247.472 724.154 258.156C731.231 283.396 736.251 309.292 739.152 335.529C746.433 401.872 741.145 489.351 741.145 489.351L673.805 490.001L676.732 446.132L687.565 337.591L687.278 490.27H608.805C608.805 490.27 603.435 231.318 615.137 173.732C615.379 172.576 615.883 171.508 616.601 170.628C617.319 169.749 618.228 169.088 619.241 168.707C620.254 168.327 621.338 168.24 622.389 168.455C623.441 168.67 624.426 169.179 625.25 169.935V169.934Z" fill="#090814"/>
<path d="M541.715 186.308L488.655 214.624C479.678 219.415 471.818 226.441 465.688 235.156C459.559 243.87 455.324 254.038 453.315 264.866L431.081 384.713L423.816 457.207C423.816 457.207 455.073 488.276 475.585 477.974L474.121 489.997H521.555L541.715 186.308Z" fill="#090814"/>
<path d="M463.874 404.861L401.511 366.516L383.651 421.432C383.651 421.432 419.501 470.729 475.586 477.974L463.874 404.86V404.861Z" fill="#090814"/>
<path d="M358.985 388.34C359.117 388.34 359.25 388.33 359.381 388.31L383.037 384.634C383.573 384.551 384.077 384.302 384.492 383.915C384.907 383.529 385.215 383.021 385.382 382.45C385.549 381.878 385.567 381.266 385.436 380.683C385.304 380.1 385.027 379.57 384.636 379.154L313.952 303.782C313.387 303.198 312.643 302.879 311.871 302.889L286.947 303.683C286.381 303.7 285.832 303.903 285.369 304.264C284.906 304.626 284.549 305.13 284.342 305.715C284.136 306.301 284.089 306.94 284.208 307.554C284.327 308.169 284.606 308.731 285.01 309.17L356.961 387.427C357.504 388.012 358.229 388.34 358.985 388.341V388.34Z" fill="#F2F2F2"/>
<path d="M463.687 495.862C476.224 472.24 485.704 446.778 491.848 420.224C497.987 393.812 500.829 366.59 500.295 339.32C499.993 323.987 498.588 308.705 496.093 293.62C495.794 291.815 498.285 291.043 498.587 292.857C500.841 306.441 502.225 320.185 502.73 333.985C503.23 347.796 502.86 361.629 501.624 375.382C500.4 389.063 498.34 402.635 495.458 416.005C492.558 429.448 488.818 442.65 484.266 455.516C479.725 468.372 474.369 480.854 468.238 492.869C467.477 494.356 466.703 495.836 465.916 497.308C465.733 497.612 465.452 497.827 465.13 497.909C464.809 497.991 464.471 497.934 464.187 497.749C463.902 497.564 463.692 497.266 463.599 496.915C463.506 496.563 463.538 496.186 463.687 495.86V495.862Z" fill="white"/>
<path d="M419.437 370.5C422.749 376.88 427.255 382.398 432.652 386.681C438.049 390.963 444.21 393.911 450.721 395.324C452.353 395.674 451.662 398.439 450.034 398.092C443.199 396.583 436.734 393.47 431.072 388.961C425.41 384.452 420.682 378.652 417.205 371.949C417.055 371.623 417.024 371.246 417.117 370.895C417.21 370.543 417.42 370.245 417.705 370.06C417.989 369.875 418.327 369.818 418.648 369.9C418.969 369.982 419.25 370.197 419.434 370.501L419.437 370.5Z" fill="white"/>
<path d="M673.489 489.057C674.789 474.111 673.86 458.895 672.638 443.972C671.324 426.778 668.966 409.703 665.579 392.862C664.131 385.327 662.14 377.933 659.623 370.752C659.058 369.211 661.555 368.548 662.117 370.077C664.357 376.428 666.165 382.957 667.526 389.609C669.283 397.686 670.671 405.839 671.848 414.017C674.369 431.173 675.917 448.487 676.484 465.859C676.799 473.593 676.663 481.342 676.077 489.056C675.936 490.673 673.349 490.688 673.491 489.056L673.489 489.057Z" fill="white"/>
<path d="M587.843 468.788L683.923 480.974L674.701 440.029L589.501 431.57C583.863 424.443 574.948 419.579 564.716 419.018C546.814 418.036 531.707 430.57 530.975 447.013C530.243 463.456 544.163 477.583 562.065 478.565C572.297 479.127 581.6 475.266 587.844 468.787L587.843 468.788Z" fill="#ED9DA0"/>
<path d="M675.919 426.131L604.691 422.729L610.806 480.72C610.806 480.72 662.717 507.062 715.816 485.748L675.92 426.132L675.919 426.131Z" fill="#090814"/>
<path d="M541.363 187.7L507.199 465.541L504.227 460.754L538.728 180.139C561.049 203.893 585.143 198.957 610.463 174.145C611.048 173.573 611.768 173.198 612.539 173.066C613.31 172.934 614.099 173.049 614.812 173.398C615.526 173.747 616.135 174.316 616.567 175.036C616.999 175.757 617.236 176.6 617.25 177.465C590.409 205.887 564.902 212.752 541.363 187.703V187.7Z" fill="#090814"/>
<path d="M145.738 172.993H268.229C271.106 172.993 273.866 174.262 275.901 176.52C277.936 178.779 279.079 181.842 279.079 185.036V251.272C279.079 254.465 277.936 257.528 275.901 259.787C273.866 262.045 271.106 263.314 268.229 263.314H145.738C142.86 263.314 140.1 262.045 138.065 259.787C136.03 257.528 134.887 254.465 134.887 251.272V185.037C134.887 183.455 135.167 181.889 135.713 180.428C136.258 178.967 137.057 177.639 138.065 176.521C139.072 175.402 140.268 174.515 141.585 173.91C142.901 173.305 144.313 172.993 145.738 172.993ZM271.259 181.208C271.018 181.16 265.282 180.075 260.532 183.248C255.782 186.422 253.958 192.552 253.883 192.811L253.691 193.473L254.307 193.594C255.187 193.747 256.076 193.819 256.966 193.811C259.788 193.871 262.574 193.091 265.035 191.553C269.784 188.383 271.608 182.251 271.683 181.991L271.876 181.33L271.259 181.208ZM244.67 242.705H266.518C268.111 242.705 269.639 242.002 270.766 240.752C271.893 239.501 272.526 237.805 272.526 236.037C272.526 234.268 271.893 232.572 270.766 231.322C269.639 230.071 268.111 229.368 266.518 229.368H244.671C243.077 229.368 241.549 230.071 240.422 231.322C239.296 232.572 238.663 234.268 238.663 236.037C238.663 237.805 239.296 239.501 240.422 240.752C241.549 242.002 243.077 242.705 244.671 242.705H244.67ZM145.265 241.493C145.27 243.42 145.962 245.267 147.19 246.63C148.418 247.993 150.082 248.761 151.819 248.767H168.204C169.941 248.761 171.605 247.993 172.833 246.63C174.061 245.267 174.753 243.42 174.758 241.493V230.582C174.753 228.654 174.061 226.807 172.833 225.444C171.605 224.081 169.941 223.313 168.204 223.308H151.817C150.08 223.313 148.416 224.081 147.188 225.444C145.96 226.807 145.268 228.654 145.263 230.582L145.265 241.493Z" fill="#F8D45A"/>
<path d="M162.922 239.244H169.509C169.979 239.244 170.43 239.452 170.763 239.821C171.096 240.19 171.283 240.691 171.283 241.213C171.283 241.735 171.096 242.236 170.763 242.605C170.43 242.974 169.979 243.182 169.509 243.182H162.92C162.45 243.182 161.999 242.974 161.666 242.605C161.333 242.236 161.146 241.735 161.146 241.213C161.146 240.691 161.333 240.19 161.666 239.821C161.999 239.452 162.45 239.244 162.92 239.244H162.922Z" fill="#121217"/>
<path d="M150.758 239.244H157.347C157.817 239.244 158.268 239.452 158.601 239.821C158.934 240.19 159.121 240.691 159.121 241.213C159.121 241.735 158.934 242.236 158.601 242.605C158.268 242.974 157.817 243.182 157.347 243.182H150.758C150.288 243.182 149.836 242.974 149.504 242.605C149.171 242.236 148.984 241.735 148.984 241.213C148.984 240.691 149.171 240.19 149.504 239.821C149.836 239.452 150.288 239.244 150.758 239.244Z" fill="#121217"/>
<path d="M162.922 233.687H169.508C169.978 233.687 170.429 233.894 170.762 234.263C171.095 234.632 171.282 235.133 171.282 235.655C171.282 236.178 171.095 236.678 170.762 237.047C170.429 237.417 169.978 237.624 169.508 237.624H162.919C162.449 237.624 161.998 237.417 161.665 237.047C161.332 236.678 161.145 236.178 161.145 235.655C161.145 235.133 161.332 234.632 161.665 234.263C161.998 233.894 162.449 233.687 162.919 233.687H162.922Z" fill="#121217"/>
<path d="M150.76 233.687H157.349C157.819 233.687 158.27 233.894 158.603 234.263C158.936 234.632 159.123 235.133 159.123 235.655C159.123 236.178 158.936 236.678 158.603 237.047C158.27 237.417 157.819 237.624 157.349 237.624H150.76C150.29 237.624 149.838 237.417 149.506 237.047C149.173 236.678 148.986 236.178 148.986 235.655C148.986 235.133 149.173 234.632 149.506 234.263C149.838 233.894 150.29 233.687 150.76 233.687Z" fill="#121217"/>
<path d="M162.922 228.243H169.508C169.978 228.243 170.429 228.451 170.762 228.82C171.095 229.189 171.282 229.69 171.282 230.212C171.282 230.734 171.095 231.235 170.762 231.604C170.429 231.973 169.978 232.181 169.508 232.181H162.919C162.449 232.181 161.998 231.973 161.665 231.604C161.332 231.235 161.145 230.734 161.145 230.212C161.145 229.69 161.332 229.189 161.665 228.82C161.998 228.451 162.449 228.243 162.919 228.243H162.922Z" fill="#121217"/>
<path d="M150.76 228.243H157.349C157.819 228.243 158.27 228.451 158.603 228.82C158.936 229.189 159.123 229.69 159.123 230.212C159.123 230.734 158.936 231.235 158.603 231.604C158.27 231.973 157.819 232.181 157.349 232.181H150.76C150.29 232.181 149.838 231.973 149.506 231.604C149.173 231.235 148.986 230.734 148.986 230.212C148.986 229.69 149.173 229.189 149.506 228.82C149.838 228.451 150.29 228.243 150.76 228.243Z" fill="#121217"/>
<path d="M204.748 277.74C213.989 290.631 224.678 302.156 236.555 312.036C251.825 324.88 268.115 334.67 283.664 340.349L283.891 339.584C268.416 333.932 252.2 324.185 236.992 311.394C223.249 299.836 211.295 286.549 202.422 272.979L201.835 273.452C202.772 274.883 203.742 276.313 204.748 277.74Z" fill="#090814"/>
<path d="M151.39 98.207C152.634 108.712 155.085 118.997 158.681 128.812C162.869 140.774 168.785 151.899 176.197 161.75L176.55 161.412C169.172 151.605 163.284 140.529 159.115 128.62C155.123 117.789 152.567 106.373 151.529 94.7277L151.066 94.7721C151.154 95.9066 151.262 97.0516 151.39 98.207Z" fill="#090814"/>
<path d="M14.8599 0H287.162C295.369 0 302.022 7.38392 302.022 16.4925V66.9913C302.022 76.0998 295.369 83.4838 287.162 83.4838H14.8599C6.65295 83.4838 -9.15527e-05 76.0998 -9.15527e-05 66.9913V16.4925C-9.15527e-05 7.38392 6.65295 0 14.8599 0Z" fill="#090814"/>
<path d="M17.3501 3.79395H284.671C292.365 3.79395 298.603 10.7164 298.603 19.2556V64.2264C298.603 72.7657 292.365 79.6881 284.671 79.6881H17.3501C9.6561 79.6881 3.41885 72.7657 3.41885 64.2264V19.2556C3.41885 10.7164 9.6561 3.79395 17.3501 3.79395Z" fill="white"/>
<path d="M32.7133 54.1515C33.091 54.1509 33.4633 54.0526 33.8008 53.8644C34.1382 53.6762 34.4314 53.4032 34.6572 53.0671L40.616 44.2539C41.0026 43.682 41.1687 42.9631 41.0777 42.2553C40.9867 41.5475 40.6461 40.9088 40.1308 40.4798C39.6155 40.0507 38.9677 39.8664 38.3299 39.9674C37.6922 40.0684 37.1167 40.4464 36.7301 41.0184L32.8294 46.7856L22.8202 30.123C22.4631 29.528 21.9076 29.1148 21.2759 28.9744C20.6443 28.834 19.9882 28.9778 19.4521 29.3742C18.916 29.7706 18.5437 30.3871 18.4172 31.0881C18.2907 31.7892 18.4202 32.5173 18.7774 33.1123L30.6914 52.9506C30.9061 53.3098 31.1952 53.6067 31.5346 53.8163C31.8739 54.026 32.2536 54.1423 32.6418 54.1556L32.7133 54.1515Z" fill="#33A0DF"/>
<path d="M54.7356 16.3164H27.4619C25.0509 16.3164 22.7387 17.3794 21.0339 19.2715C19.329 21.1636 18.3713 23.7298 18.3713 26.4057V56.6755C18.3713 59.3513 19.329 61.9176 21.0339 63.8097C22.7387 65.7018 25.0509 66.7648 27.4619 66.7648H54.7356C57.1465 66.7648 59.4588 65.7018 61.1636 63.8097C62.8684 61.9176 63.8262 59.3513 63.8262 56.6755V26.4057C63.8262 23.7298 62.8684 21.1636 61.1636 19.2715C59.4588 17.3794 57.1465 16.3164 54.7356 16.3164Z" fill="#33A0DF"/>
<path d="M39.6914 58.77V55.4644C37.6664 55.4256 35.7151 54.5884 34.1674 53.0941C33.4717 52.3447 32.9199 51.4381 32.5469 50.4317C32.1739 49.4254 31.9879 48.3413 32.0006 47.2483H35.9203C35.9313 47.7948 36.041 48.3329 36.2426 48.8285C36.4442 49.3242 36.7333 49.7668 37.0916 50.1284C37.833 50.827 38.7392 51.2575 39.695 51.3652V43.463L38.5009 43.0855C36.8872 42.6582 35.3962 41.765 34.1701 40.4911C33.6491 39.8953 33.2417 39.1823 32.9739 38.3972C32.7061 37.6121 32.5836 36.772 32.6141 35.93C32.5911 34.5661 32.9093 33.2231 33.5311 32.0592C34.1522 30.9272 35.0182 29.9977 36.0452 29.3605C37.1711 28.6597 38.4135 28.2383 39.6914 28.1237V24.7451H41.4762V28.1091C42.7896 28.1763 44.0732 28.5793 45.2327 29.2885C46.2562 29.921 47.1201 30.8443 47.7412 31.9695C48.3538 33.0976 48.6854 34.3956 48.7002 35.7235H44.8462C44.7892 34.7956 44.4204 33.9289 43.817 33.3053C43.1573 32.6645 42.3414 32.271 41.4798 32.178V39.636L42.477 39.9384C43.5648 40.2592 44.616 40.7246 45.6091 41.3253C46.5806 41.9021 47.4181 42.7353 48.0521 43.756C48.7127 44.8923 49.0429 46.2382 48.9955 47.6018C49.0222 48.619 48.8601 49.6311 48.5201 50.5714C48.1801 51.5118 47.6699 52.3591 47.0229 53.0576C45.4868 54.5889 43.5218 55.4398 41.4844 55.456V58.7658L39.6914 58.77ZM41.4762 51.3485C42.4254 51.2497 43.3234 50.812 44.0431 50.0972C44.3559 49.7829 44.6053 49.3944 44.7737 48.9588C44.9421 48.5232 45.0256 48.0509 45.0184 47.5747C45.0374 47.137 44.9585 46.701 44.7891 46.308C44.6197 45.9149 44.3654 45.5778 44.0504 45.3285C43.2618 44.736 42.3925 44.2979 41.478 44.0324L41.4762 51.3485ZM39.6914 39.099V32.2166C38.8483 32.3196 38.0573 32.7336 37.438 33.396C37.1758 33.6886 36.9686 34.0394 36.8292 34.4269C36.6899 34.8145 36.6213 35.2305 36.6276 35.6495C36.6077 36.0843 36.6837 36.5179 36.8485 36.9104C37.0134 37.3029 37.2619 37.6417 37.5711 37.8956C38.2189 38.4248 38.9361 38.8327 39.6959 39.1042L39.6914 39.099Z" fill="white"/>
<path d="M199.866 20.5176H90.4742C87.1177 20.5176 84.3974 24.282 84.3974 28.9256C84.3974 33.5693 87.1186 37.3337 90.4742 37.3337H199.866C203.222 37.3337 205.943 33.5693 205.943 28.9256C205.943 24.282 203.222 20.5176 199.866 20.5176Z" fill="#E6E6E6"/>
<path d="M199.922 45.7451H139.71C136.385 45.7451 133.686 49.5095 133.686 54.1532C133.686 58.7968 136.379 62.5612 139.707 62.5612H199.922C203.249 62.5612 205.943 58.7968 205.943 54.1532C205.943 49.5095 203.249 45.7451 199.922 45.7451Z" fill="#E6E6E6"/>
<path d="M226.296 41.5406C226.324 48.5152 228.529 55.2637 232.534 60.6379C236.54 66.0121 242.099 69.6802 248.267 71.018C254.435 72.3559 260.829 71.2809 266.363 67.976C271.897 64.671 276.229 59.3403 278.621 52.8906C281.013 46.441 281.317 39.2707 279.483 32.5998C277.649 25.9288 273.789 20.1692 268.56 16.3007C263.331 12.4322 257.056 10.6939 250.802 11.3814C244.548 12.0688 238.702 15.1397 234.259 20.0716C231.725 22.8936 229.718 26.2424 228.352 29.9263C226.985 33.6102 226.287 37.5569 226.296 41.5406Z" fill="#F2F2F2"/>
<path d="M242.435 34.289L242.57 34.5591C241.367 31.2699 242.461 27.2168 244.607 24.7357C246.806 22.4126 249.647 20.9806 252.671 20.6714C254.851 20.2444 257.093 20.4377 259.187 21.2331C262.189 22.5165 264.481 25.4872 266.397 28.5785C267.405 29.932 267.985 31.6158 268.046 33.3706C267.966 35.0106 267.089 36.4021 266.375 37.7926C265.66 39.1831 265.057 40.9097 265.572 42.4311C265.957 43.2778 266.458 44.0527 267.058 44.7277C267.356 45.0799 267.575 45.505 267.698 45.9686C267.821 46.4322 267.843 46.9213 267.764 47.3964C267.651 47.7517 267.457 48.0684 267.201 48.3156C266.945 48.5627 266.635 48.7318 266.302 48.8065C265.658 48.926 264.999 48.9089 264.36 48.756L247.621 45.9492C246.484 45.7584 245.405 45.2652 244.476 44.5116C243.548 43.758 242.797 42.7663 242.289 41.6212C241.78 40.476 241.529 39.2114 241.555 37.935C241.582 36.6587 241.887 35.4085 242.444 34.2911L242.435 34.289Z" fill="#090814"/>
<path d="M257.443 42.9033L250.623 43.6135L250.027 53.7945H256.537L257.443 42.9033Z" fill="#ED9DA0"/>
<path d="M233.097 61.5485C237.827 67.5226 244.485 71.1925 251.633 71.7658C258.78 72.3392 265.844 69.77 271.3 64.6129L268.957 57.3594C268.428 56.071 267.593 54.9668 266.541 54.1653C265.489 53.3637 264.261 52.895 262.987 52.8095L261.502 52.7064L257.949 49.3049C257.949 49.3049 248.376 48.9256 248.519 48.7441L242.719 52.6147L242.724 52.5879L240.445 52.7425C239.171 52.8277 237.943 53.2963 236.891 54.0978C235.839 54.8994 235.004 56.0038 234.475 57.2924L233.097 61.5485Z" fill="#33A0DF"/>
<path d="M246.807 38.188C246.083 33.2362 249.113 28.5707 253.575 27.7671C258.036 26.9636 262.24 30.3264 262.964 35.2782C263.688 40.23 260.658 44.8955 256.196 45.699C251.735 46.5026 247.531 43.1397 246.807 38.188Z" fill="#ED9DA0"/>
<path d="M247.119 28.304C247.33 27.0671 248.47 26.496 249.447 26.2218C252.279 25.4196 255.226 25.2399 258.121 25.693C260.3 25.8864 262.352 26.9093 263.929 28.5885C265.164 30.1279 265.864 32.1055 265.902 34.166C265.965 35.3982 265.717 36.6254 265.186 37.7099C264.949 38.2146 264.597 38.6421 264.166 38.9506C263.735 39.2591 263.239 39.4378 262.727 39.4694L262.628 39.8487C260.51 39.4698 258.49 38.5875 256.707 37.2621C254.924 35.9367 253.421 34.1996 252.299 32.1694C252.751 33.9556 253.648 35.5636 254.888 36.8079C252.114 35.576 249.703 33.5134 247.922 30.85C247.638 30.5098 247.42 30.1081 247.282 29.67C247.143 29.2319 247.088 28.7669 247.119 28.304Z" fill="#090814"/>
</g>
<defs>
<clipPath id="clip0_303_345">
<rect width="743" height="498" fill="white" transform="matrix(-1 0 0 1 743 0)"/>
</clipPath>
</defs>
</svg>
