<svg width="1123" height="928" viewBox="0 0 1123 928" fill="none" xmlns="http://www.w3.org/2000/svg">
<g filter="url(#filter0_d_572_308)">
<path d="M626.28 397.464C626.538 398.413 626.725 399.383 626.839 400.364L701.752 440.265L718.824 428.509L739.005 453.379L710.698 477.291C708.412 479.223 705.593 480.319 702.665 480.417C699.737 480.514 696.858 479.606 694.461 477.83L616.326 419.942C613.019 421.461 609.352 421.88 605.813 421.146C602.274 420.411 599.03 418.557 596.514 415.83C593.998 413.103 592.329 409.632 591.727 405.879C591.126 402.126 591.622 398.269 593.149 394.82C594.676 391.372 597.162 388.496 600.275 386.575C603.389 384.653 606.983 383.778 610.58 384.065C614.176 384.352 617.605 385.788 620.409 388.181C623.214 390.574 625.261 393.812 626.28 397.464Z" fill="#FFB6B6"/>
<path d="M704.208 441.772L729.042 472.758C729.748 473.639 730.626 474.35 731.617 474.841C732.607 475.332 733.686 475.592 734.78 475.604C735.874 475.615 736.958 475.377 737.957 474.907C738.956 474.437 739.848 473.745 740.571 472.878L765.9 442.506C770.156 438.666 772.795 433.202 773.238 427.312C773.682 421.421 771.893 415.586 768.264 411.085C764.636 406.585 759.464 403.787 753.883 403.305C748.303 402.823 742.769 404.696 738.495 408.514L706.009 429.755C705.079 430.363 704.285 431.176 703.679 432.138C703.074 433.1 702.672 434.188 702.501 435.328C702.33 436.469 702.394 437.635 702.689 438.747C702.983 439.859 703.501 440.891 704.208 441.772Z" fill="#33A0DF"/>
<path d="M797.715 895.976H780.09L771.706 824.239H797.717L797.715 895.976Z" fill="#FFB6B6"/>
<path d="M802.211 889.905L767.502 889.903C761.635 889.904 756.008 892.363 751.86 896.74C747.712 901.117 745.381 907.054 745.381 913.245V914.003L802.209 914.005L802.211 889.905Z" fill="#2F2E41"/>
<path d="M801.685 696.206L796.674 714.036L729.115 702.122L736.513 675.807L801.685 696.206Z" fill="#FFB6B6"/>
<path d="M797.447 689.931L787.577 725.046C785.909 730.981 786.544 737.373 789.341 742.814C792.138 748.255 796.869 752.301 802.494 754.062L803.183 754.277L819.342 696.784L797.447 689.931Z" fill="#2F2E41"/>
<path d="M619.61 659.52C622.154 663.994 625.745 667.703 630.038 670.291C634.331 672.878 639.183 674.258 644.127 674.298L750.053 710.083L754.896 680.438L690.756 643.713L752.898 596.483L707.37 540.263L624.678 621.595C619.845 626.348 616.706 632.708 615.783 639.611C614.861 646.514 616.212 653.542 619.61 659.52Z" fill="#2F2E41"/>
<path d="M773.241 862.253H799.395C822.878 692.393 846.78 522.061 776.146 458.482L692.84 472.794L703.496 547.415L749.991 603.635L773.241 862.253Z" fill="#2F2E41"/>
<path d="M697.934 503.571C733.192 528.925 778.737 522.963 797.748 485.185C770.434 436.64 764.684 401.748 786.671 385.819C790.195 372.561 788.88 358.391 782.986 346.106C777.092 333.82 767.048 324.314 754.836 319.462L713.184 337.862C677.819 368.284 670.854 401.237 684.123 435.993L697.934 503.571Z" fill="#33A0DF"/>
<path d="M828.088 533.526C825.888 532.987 823.828 531.946 822.051 530.476C820.275 529.006 818.825 527.143 817.805 525.017C816.785 522.892 816.218 520.556 816.146 518.175C816.073 515.794 816.496 513.425 817.386 511.235L760.454 375.504L793.022 366.848L838.743 502.989C842.13 504.809 844.767 507.876 846.154 511.611C847.541 515.346 847.582 519.487 846.269 523.252C844.955 527.016 842.379 530.141 839.028 532.035C835.677 533.928 831.785 534.459 828.088 533.526Z" fill="#FFB6B6"/>
<path d="M768.161 399.778L799.836 384.133C800.737 383.687 801.537 383.042 802.18 382.242C802.824 381.441 803.297 380.503 803.566 379.492C803.836 378.481 803.895 377.421 803.741 376.384C803.587 375.346 803.223 374.356 802.674 373.481L783.424 342.802C781.238 337.953 777.319 334.216 772.526 332.41C767.733 330.604 762.458 330.876 757.855 333.167C753.252 335.458 749.697 339.581 747.97 344.632C746.242 349.684 746.482 355.252 748.638 360.117L758.592 395.255C758.877 396.261 759.364 397.191 760.021 397.98C760.677 398.769 761.487 399.4 762.395 399.829C763.303 400.258 764.288 400.476 765.283 400.467C766.278 400.459 767.26 400.224 768.161 399.778Z" fill="#33A0DF"/>
<path d="M697.901 309.468H781.281C782.996 309.466 784.64 308.746 785.853 307.466C787.066 306.186 787.748 304.451 787.75 302.641V264.716C787.75 251.237 782.676 238.311 773.645 228.78C764.613 219.25 752.364 213.896 739.591 213.896C726.819 213.896 714.569 219.25 705.538 228.78C696.506 238.311 691.432 251.237 691.432 264.716V302.641C691.434 304.451 692.116 306.186 693.329 307.466C694.542 308.746 696.186 309.466 697.901 309.468Z" fill="#2F2E41"/>
<path d="M727.706 308.891C708.205 308.891 692.397 292.21 692.397 271.632C692.397 251.054 708.205 234.372 727.706 234.372C747.206 234.372 763.014 251.054 763.014 271.632C763.014 292.21 747.206 308.891 727.706 308.891Z" fill="#FFB6B6"/>
<path d="M680.039 268.508H731.024L731.547 260.784L734.161 268.508H742.011L743.047 253.199L748.228 268.508H763.419V267.75C763.407 257.092 759.39 246.873 752.248 239.337C745.106 231.8 735.423 227.561 725.323 227.549H718.135C708.035 227.561 698.352 231.8 691.21 239.337C684.068 246.873 680.051 257.092 680.039 267.75V268.508Z" fill="#2F2E41"/>
</g>
<defs>
<filter id="filter0_d_572_308" x="-10" y="-28" width="1183" height="957" filterUnits="userSpaceOnUse" color-interpolation-filters="sRGB">
<feFlood flood-opacity="0" result="BackgroundImageFix"/>
<feColorMatrix in="SourceAlpha" type="matrix" values="0 0 0 0 0 0 0 0 0 0 0 0 0 0 0 0 0 0 127 0" result="hardAlpha"/>
<feOffset dy="4"/>
<feGaussianBlur stdDeviation="5"/>
<feComposite in2="hardAlpha" operator="out"/>
<feColorMatrix type="matrix" values="0 0 0 0 0 0 0 0 0 0 0 0 0 0 0 0 0 0 0.25 0"/>
<feBlend mode="normal" in2="BackgroundImageFix" result="effect1_dropShadow_572_308"/>
<feBlend mode="normal" in="SourceGraphic" in2="effect1_dropShadow_572_308" result="shape"/>
</filter>
</defs>
</svg>
