<svg width="282" height="559" viewBox="0 0 282 559" fill="none" xmlns="http://www.w3.org/2000/svg">
<path d="M29.9688 285.657C30.7745 284.382 31.2654 282.96 31.407 281.492C31.5486 280.024 31.3374 278.545 30.7882 277.16C30.2391 275.775 29.3653 274.517 28.2286 273.475C27.0918 272.433 25.7197 271.632 24.2088 271.129L24.775 235.309L7.66363 245.331L9.74938 277.81C8.99549 280.193 9.22124 282.747 10.3839 284.987C11.5465 287.228 13.5653 289 16.0576 289.967C18.5499 290.934 21.3425 291.03 23.9064 290.235C26.4704 289.441 28.6274 287.812 29.9688 285.657Z" fill="#A0616A"/>
<path d="M50.5908 91.1816C55.663 92.0033 60.2678 94.4116 63.621 97.9962C66.9741 101.581 68.8685 106.12 68.9815 110.841C69.2293 121.325 65.4134 125.234 60.0211 126.646C50.0527 129.257 34.1772 182.066 34.1772 182.066C34.1772 182.066 32.4922 231.321 29.7745 228.889C27.0569 226.456 30.1325 232.132 29.3067 233.864C28.481 235.596 33.2213 238.189 28.7151 240.156C24.2089 242.124 27.057 257.791 27.057 257.791L7.12026 256.485C7.12026 256.485 10.4305 243.722 5.92723 242.923C1.424 242.124 3.47029 238.491 5.29526 235.738C7.12022 232.984 2.06643 229.06 4.59331 227.758C7.12019 226.456 -1.11829e-06 175.538 -1.11829e-06 175.538L27.8384 100.441C30.1946 96.9965 33.6187 94.2751 37.6722 92.6255C41.7256 90.9759 46.2239 90.4731 50.5908 91.1816Z" fill="white"/>
<path d="M111.076 94.1371L96.7343 71.0908H77.3587L62.8263 95.4427L111.076 94.1371Z" fill="white"/>
<path d="M13.5954 547.675L26.4816 547.674L32.6121 502.1L13.5911 502.101L13.5954 547.675Z" fill="#A0616A"/>
<path d="M13.1405 560L52.771 559.999V559.539C52.7707 555.789 51.1455 552.192 48.2527 549.54C45.36 546.888 41.4367 545.398 37.3457 545.397L30.1058 540.362L16.5994 545.398L13.1399 545.398L13.1405 560Z" fill="#2F2E41"/>
<path d="M110.431 547.675L123.317 547.674L129.448 502.1L110.427 502.101L110.431 547.675Z" fill="#A0616A"/>
<path d="M109.976 560L149.607 559.999V559.539C149.606 555.789 147.981 552.192 145.088 549.54C142.195 546.888 138.272 545.398 134.181 545.397L126.941 540.362L113.435 545.398L109.975 545.398L109.976 560Z" fill="#2F2E41"/>
<path d="M9.48537 509.956C4.78366 507.139 7.50748 507.322 7.50748 507.322C7.50748 507.322 18.0213 429.17 26.0201 405.486L35.2764 290.155C35.2764 290.155 35.864 292.455 35.2764 286.864C34.6887 281.272 30.4166 285.189 34.6887 281.272C38.9609 277.355 41.809 275.359 38.9609 272.441C36.1128 269.522 28.256 263.617 32.8964 260.041C37.5369 256.466 46.6688 233.148 46.6688 233.148L135.672 233.801L132.112 233.148C132.112 233.148 143.222 229.369 138.133 234.29C133.044 239.212 140.981 251.263 143.829 263.013C146.188 272.745 153.191 275.328 143.829 277.375C134.468 279.422 142.939 285.223 142.939 285.223C142.939 285.223 157.033 346.734 146.352 387.208C146.352 387.208 138.984 487.31 135.254 495.919C131.524 504.528 130.1 499.306 131.524 504.528C132.948 509.751 135.796 500.612 132.948 509.751C131.394 514.524 130.164 519.382 129.264 524.295L109.95 522.989C109.95 522.989 105.465 510.028 109.95 506.625C114.436 503.223 111.339 513.153 106.479 505.577C101.619 498 107.315 500.612 108.739 490.167C110.163 479.722 97.0983 431.066 106.479 401.212L89.1436 317.441L61.6214 404.181C61.6214 404.181 47.023 510.117 42.2799 513.85C37.5368 517.584 39.4523 508.521 37.5369 517.584C35.6012 526.743 31.2048 524.315 31.3291 525.437C32.6552 537.413 9.48537 525.601 9.48537 525.601C9.71204 522.558 9.71204 519.504 9.48537 516.462C9.05582 513.667 14.1871 512.773 9.48537 509.956Z" fill="#2F2E41"/>
<path d="M126.74 260.402C132.437 260.402 148.101 253.33 145.253 250.338C142.405 247.346 142.405 237.416 142.405 234.548C142.405 231.679 129.589 125.926 129.589 125.926L130.562 100.033C130.621 98.4812 130.338 96.9342 129.73 95.4845C129.123 94.0349 128.203 92.7122 127.026 91.5953C125.849 90.4784 124.439 89.5901 122.88 88.9835C121.32 88.3768 119.644 88.0642 117.95 88.0642L105.38 84.1474L69.7784 82.8418L52.0256 88.0642C50.2642 88.0642 48.5323 88.4786 46.9956 89.2679C45.4589 90.0572 44.1689 91.1948 43.249 92.572C42.3292 93.9491 41.8102 95.5197 41.7418 97.1334C41.6735 98.747 42.058 100.35 42.8586 101.788C33.4383 115.888 28.7105 132.203 29.255 148.73C29.6635 161.096 36.4967 176.197 38.1434 190.167C38.2879 191.393 38.3925 192.611 38.4493 193.817C38.4651 194.153 41.3802 195.83 38.4907 194.823C35.6012 193.817 40.0392 197.369 38.5322 199.51C37.0252 201.651 34.1045 200.339 38.413 202.953C42.7215 205.567 33.24 230.82 34.1771 231.679C37.0252 234.291 42.7215 235.596 38.4493 239.513C34.1771 243.43 29.905 240.818 35.6012 246.041C41.2974 251.263 58.3636 260.402 58.3636 260.402L126.74 260.402Z" fill="#3F3D56"/>
<path d="M88.6698 67.6815C71.7422 67.6815 58.0197 55.1005 58.0197 39.581C58.0197 24.0615 71.7422 11.4805 88.6698 11.4805C105.597 11.4805 119.32 24.0615 119.32 39.581C119.32 55.1005 105.597 67.6815 88.6698 67.6815Z" fill="#A0616A"/>
<path d="M275.349 126.766C273.879 126.17 272.284 125.877 270.677 125.907C269.07 125.938 267.489 126.291 266.047 126.942C264.605 127.593 263.336 128.526 262.33 129.675C261.323 130.824 260.604 132.161 260.222 133.593L221.321 136.967L234.046 151.474L269.036 146.046C271.702 146.474 274.447 145.991 276.75 144.688C279.053 143.385 280.755 141.353 281.533 138.976C282.311 136.6 282.112 134.044 280.972 131.794C279.832 129.543 277.831 127.754 275.349 126.766Z" fill="#A0616A"/>
<path d="M90.9063 105.849C91.8027 101.198 94.4294 96.9768 98.3392 93.9026C102.249 90.8283 107.2 89.0916 112.35 88.988C123.784 88.7608 128.048 92.2592 129.589 97.203C132.437 106.342 178.287 138.468 178.287 138.468L217.663 134.561C220.031 133.856 218.908 131.879 227.811 133.554C232.196 130.921 235.032 131.367 237.473 132.595L252.057 131.148L250.633 152.038C250.633 152.038 235.02 148.633 232.12 154.649C229.22 160.665 229.884 161.529 223.576 157.26C217.268 152.991 217.88 157.26 217.88 157.26L172.31 167.705L101.006 126.708C97.2487 124.548 94.2805 121.409 92.4812 117.693C90.6819 113.977 90.1335 109.852 90.9063 105.849Z" fill="white"/>
<path d="M76.7705 64.6679L74.7626 65.2554C81.0427 65.7385 92.2357 68.9502 91.1392 67.1746C90.0427 65.399 94.1867 58.7013 92.1645 57.8527C90.0624 57.1765 88.1878 56.0113 86.7246 54.4712C85.443 52.8261 85.4715 50.1105 87.394 49.1052C89.2595 48.113 91.5664 49.1835 93.4177 50.1888C95.2832 51.1811 98.7294 36.5846 97.8465 32.028C103.044 29.4169 109.339 34.4173 115.177 33.4381C118.752 32.8375 121.329 30.148 122.952 27.0929C120.3 24.7864 118.326 21.9034 117.214 18.711C119.692 19.8559 122.341 20.6609 125.074 21.1002C125.565 18.7296 125.497 16.2903 124.875 13.9456C124.398 12.0739 123.425 10.3391 122.041 8.8951C120.657 7.45113 118.906 6.34268 116.943 5.66813C114.951 5.06265 112.794 5.09743 110.826 5.76671C108.859 6.43598 107.199 7.69981 106.12 9.34991C106 7.57266 106.497 5.80617 107.541 4.30465C108.585 2.80313 110.122 1.64401 111.93 0.994131C110.611 0.366394 109.151 0.0266903 107.664 0.00151004C106.178 -0.0236702 104.705 0.266367 103.361 0.848982C102.017 1.4316 100.838 2.29103 99.9162 3.36024C98.9942 4.42945 98.3541 5.6795 98.0458 7.01289C91.615 4.0581 84.2357 3.33473 77.2689 4.97617C70.3765 6.63427 61.2342 13.6453 61.2342 13.6453C45.6836 16.7919 46.424 71.0001 76.7705 64.6679Z" fill="#2F2E41"/>
</svg>
